<?xml version="1.0" encoding="utf-8"?>
<!-- Generator: Adobe Illustrator 21.1.0, SVG Export Plug-In . SVG Version: 6.00 Build 0)  -->
<svg version="1.1" id="Layer_1" xmlns="http://www.w3.org/2000/svg" xmlns:xlink="http://www.w3.org/1999/xlink" x="0px" y="0px"
	 viewBox="0 0 300 300" style="enable-background:new 0 0 300 300;" xml:space="preserve">
<style type="text/css">
	.st0{fill:#3A5A98;}
	.st1{clip-path:url(#SVGID_2_);}
	.st2{fill:#2E334C;}
	.st3{fill:#FFFFFF;}
</style>
<rect x="-0.1" class="st0" width="299.8" height="299.8"/>
<g>
	<defs>
		<rect id="SVGID_1_" x="-0.1" width="299.8" height="299.8"/>
	</defs>
	<clipPath id="SVGID_2_">
		<use xlink:href="#SVGID_1_"  style="overflow:visible;"/>
	</clipPath>
	<g class="st1">
		<path class="st2" d="M89.8,110.6h25.7V87.3c0-10.3,0.3-26.1,8.3-35.9c8.4-10.4,20-17.5,39.9-17.5c32.4,0,46.1,4.3,46.1,4.3
			l-6.4,35.5c0,0-10.7-2.9-20.7-2.9c-10,0-18.9,3.3-18.9,12.7v27.1h41l-2.9,34.7h-38.1v120.5h-48.2V145.3H89.8V110.6z"/>
		<path class="st2" d="M90.4,111.2h25.7V87.9c0-10.3,0.3-26.1,8.3-35.9c8.4-10.4,20-17.5,39.9-17.5c32.4,0,46.1,4.3,46.1,4.3
			l-6.4,35.5c0,0-10.7-2.9-20.7-2.9c-10,0-18.9,3.3-18.9,12.7v27.1h41l-2.9,34.7h-38.1v120.5h-48.2V145.9H90.4V111.2z"/>
		<path class="st2" d="M90.9,111.7h25.7V88.4c0-10.3,0.3-26.1,8.3-35.9c8.4-10.4,20-17.5,39.9-17.5c32.4,0,46.1,4.3,46.1,4.3
			l-6.4,35.5c0,0-10.7-2.9-20.7-2.9c-10,0-18.9,3.3-18.9,12.7v27.1h41l-2.9,34.7h-38.1v120.5h-48.2V146.4H90.9V111.7z"/>
		<path class="st2" d="M91.4,112.2h25.7V88.9c0-10.3,0.3-26.1,8.3-35.9c8.4-10.4,20-17.5,39.9-17.5c32.4,0,46.1,4.3,46.1,4.3
			l-6.4,35.5c0,0-10.7-2.9-20.7-2.9c-10,0-18.9,3.3-18.9,12.7v27.1h41l-2.9,34.7h-38.1v120.5h-48.2V146.9H91.4V112.2z"/>
		<path class="st2" d="M91.9,112.7h25.7V89.4c0-10.3,0.3-26.1,8.3-35.9c8.4-10.4,20-17.5,39.9-17.5c32.4,0,46.1,4.3,46.1,4.3
			l-6.4,35.5c0,0-10.7-2.9-20.7-2.9c-10,0-18.9,3.3-18.9,12.7v27.1h41l-2.9,34.7h-38.1v120.5h-48.2V147.4H91.9V112.7z"/>
		<path class="st2" d="M92.4,113.2h25.7V89.9c0-10.3,0.3-26.1,8.3-35.9c8.4-10.4,20-17.5,39.9-17.5c32.4,0,46.1,4.3,46.1,4.3
			l-6.4,35.5c0,0-10.7-2.9-20.7-2.9c-10,0-18.9,3.3-18.9,12.7v27.1h41l-2.9,34.7h-38.1v120.5h-48.2V147.9H92.4V113.2z"/>
		<path class="st2" d="M92.9,113.7h25.7V90.4c0-10.3,0.3-26.1,8.3-35.9c8.4-10.4,20-17.5,39.9-17.5c32.4,0,46.1,4.3,46.1,4.3
			l-6.4,35.5c0,0-10.7-2.9-20.7-2.9c-10,0-18.9,3.3-18.9,12.7v27.1h41l-2.9,34.7h-38.1v120.5h-48.2V148.4H92.9V113.7z"/>
		<path class="st2" d="M93.4,114.2h25.7V90.9c0-10.3,0.3-26.1,8.3-35.9c8.4-10.4,20-17.5,39.9-17.5c32.4,0,46.1,4.3,46.1,4.3
			l-6.4,35.5c0,0-10.7-2.9-20.7-2.9c-10,0-18.9,3.3-18.9,12.7v27.1h41l-2.9,34.7h-38.1v120.5h-48.2V148.9H93.4V114.2z"/>
		<path class="st2" d="M93.9,114.7h25.7V91.4c0-10.3,0.3-26.1,8.3-35.9c8.4-10.4,20-17.5,39.9-17.5c32.4,0,46.1,4.3,46.1,4.3
			l-6.4,35.5c0,0-10.7-2.9-20.7-2.9c-10,0-18.9,3.3-18.9,12.7v27.1h41l-2.9,34.7h-38.1V270h-48.2V149.4H93.9V114.7z"/>
		<path class="st2" d="M94.4,115.2h25.7V91.9c0-10.3,0.3-26.1,8.3-35.9c8.4-10.4,20-17.5,39.9-17.5c32.4,0,46.1,4.3,46.1,4.3
			L208,78.4c0,0-10.7-2.9-20.7-2.9c-10,0-18.9,3.3-18.9,12.7v27.1h41l-2.9,34.7h-38.1v120.5h-48.2V149.9H94.4V115.2z"/>
		<path class="st2" d="M95,115.8h25.7V92.5c0-10.3,0.3-26.1,8.3-35.9c8.4-10.4,20-17.5,39.9-17.5c32.4,0,46.1,4.3,46.1,4.3
			l-6.4,35.5c0,0-10.7-2.9-20.7-2.9c-10,0-18.9,3.3-18.9,12.7v27.1h41l-2.9,34.7h-38.1V271h-48.2V150.4H95V115.8z"/>
		<path class="st2" d="M95.5,116.3h25.7V93c0-10.3,0.3-26.1,8.3-35.9c8.4-10.4,20-17.5,39.9-17.5c32.4,0,46.1,4.3,46.1,4.3L209,79.4
			c0,0-10.7-2.9-20.7-2.9c-10,0-18.9,3.3-18.9,12.7v27.1h41l-2.9,34.7h-38.1v120.5h-48.2V151H95.5V116.3z"/>
		<path class="st2" d="M96,116.8h25.7V93.5c0-10.3,0.3-26.1,8.3-35.9c8.4-10.4,20-17.5,39.9-17.5c32.4,0,46.1,4.3,46.1,4.3
			l-6.4,35.5c0,0-10.7-2.9-20.7-2.9c-10,0-18.9,3.3-18.9,12.7v27.1h41l-2.9,34.7h-38.1V272h-48.2V151.5H96V116.8z"/>
		<path class="st2" d="M96.5,117.3h25.7V94c0-10.3,0.3-26.1,8.3-35.9c8.4-10.4,20-17.5,39.9-17.5c32.4,0,46.1,4.3,46.1,4.3L210,80.4
			c0,0-10.7-2.9-20.7-2.9c-10,0-18.9,3.3-18.9,12.7v27.1h41l-2.9,34.7h-38.1v120.5h-48.2V152H96.5V117.3z"/>
		<path class="st2" d="M97,117.8h25.7V94.5c0-10.3,0.3-26.1,8.3-35.9c8.4-10.4,20-17.5,39.9-17.5c32.4,0,46.1,4.3,46.1,4.3
			l-6.4,35.5c0,0-10.7-2.9-20.7-2.9c-10,0-18.9,3.3-18.9,12.7v27.1h41l-2.9,34.7h-38.1V273h-48.2V152.5H97V117.8z"/>
		<path class="st2" d="M97.5,118.3h25.7V95c0-10.3,0.3-26.1,8.3-35.9c8.4-10.4,20-17.5,39.9-17.5c32.4,0,46.1,4.3,46.1,4.3L211,81.4
			c0,0-10.7-2.9-20.7-2.9c-10,0-18.9,3.3-18.9,12.7v27.1h41l-2.9,34.7h-38.1v120.5h-48.2V153H97.5V118.3z"/>
		<path class="st2" d="M98,118.8h25.7V95.5c0-10.3,0.3-26.1,8.3-35.9c8.4-10.4,20-17.5,39.9-17.5c32.4,0,46.1,4.3,46.1,4.3
			l-6.4,35.5c0,0-10.7-2.9-20.7-2.9c-10,0-18.9,3.3-18.9,12.7v27.1h41l-2.9,34.7h-38.1v120.5h-48.2V153.5H98V118.8z"/>
		<path class="st2" d="M98.5,119.3h25.7V96c0-10.3,0.3-26.1,8.3-35.9c8.4-10.4,20-17.5,39.9-17.5c32.4,0,46.1,4.3,46.1,4.3
			l-6.4,35.5c0,0-10.7-2.9-20.7-2.9c-10,0-18.9,3.3-18.9,12.7v27.1h41l-2.9,34.7h-38.1v120.5h-48.2V154H98.5V119.3z"/>
		<path class="st2" d="M99,119.8h25.7V96.5c0-10.3,0.3-26.1,8.3-35.9c8.4-10.4,20-17.5,39.9-17.5c32.4,0,46.1,4.3,46.1,4.3L212.6,83
			c0,0-10.7-2.9-20.7-2.9c-10,0-18.9,3.3-18.9,12.7v27.1h41l-2.9,34.7h-38.1v120.5h-48.2V154.5H99V119.8z"/>
		<path class="st2" d="M99.6,120.4h25.7V97c0-10.3,0.3-26.1,8.3-35.9c8.4-10.4,20-17.5,39.9-17.5c32.4,0,46.1,4.3,46.1,4.3
			l-6.4,35.5c0,0-10.7-2.9-20.7-2.9c-10,0-18.9,3.3-18.9,12.7v27.1h41l-2.9,34.7h-38.1v120.5h-48.2V155H99.6V120.4z"/>
		<path class="st2" d="M100.1,120.9h25.7V97.6c0-10.3,0.3-26.1,8.3-35.9c8.4-10.4,20-17.5,39.9-17.5c32.4,0,46.1,4.3,46.1,4.3
			L213.6,84c0,0-10.7-2.9-20.7-2.9c-10,0-18.9,3.3-18.9,12.7v27.1h41l-2.9,34.7h-38.1v120.5h-48.2V155.6h-25.7V120.9z"/>
		<path class="st2" d="M100.6,121.4h25.7V98.1c0-10.3,0.3-26.1,8.3-35.9c8.4-10.4,20-17.5,39.9-17.5c32.4,0,46.1,4.3,46.1,4.3
			l-6.4,35.5c0,0-10.7-2.9-20.7-2.9c-10,0-18.9,3.3-18.9,12.7v27.1h41l-2.9,34.7h-38.1v120.5h-48.2V156.1h-25.7V121.4z"/>
		<path class="st2" d="M101.1,121.9h25.7V98.6c0-10.3,0.3-26.1,8.3-35.9c8.4-10.4,20-17.5,39.9-17.5c32.4,0,46.1,4.3,46.1,4.3
			L214.6,85c0,0-10.7-2.9-20.7-2.9c-10,0-18.9,3.3-18.9,12.7v27.1h41l-2.9,34.7H175v120.5h-48.2V156.6h-25.7V121.9z"/>
		<path class="st2" d="M101.6,122.4h25.7V99.1c0-10.3,0.3-26.1,8.3-35.9c8.4-10.4,20-17.5,39.9-17.5c32.4,0,46.1,4.3,46.1,4.3
			l-6.4,35.5c0,0-10.7-2.9-20.7-2.9c-10,0-18.9,3.3-18.9,12.7v27.1h41l-2.9,34.7h-38.1v120.5h-48.2V157.1h-25.7V122.4z"/>
		<path class="st2" d="M102.1,122.9h25.7V99.6c0-10.3,0.3-26.1,8.3-35.9c8.4-10.4,20-17.5,39.9-17.5c32.4,0,46.1,4.3,46.1,4.3
			L215.6,86c0,0-10.7-2.9-20.7-2.9c-10,0-18.9,3.3-18.9,12.7v27.1h41l-2.9,34.7H176v120.5h-48.2V157.6h-25.7V122.9z"/>
		<path class="st2" d="M102.6,123.4h25.7v-23.3c0-10.3,0.3-26.1,8.3-35.9c8.4-10.4,20-17.5,39.9-17.5c32.4,0,46.1,4.3,46.1,4.3
			l-6.4,35.5c0,0-10.7-2.9-20.7-2.9c-10,0-18.9,3.3-18.9,12.7v27.1h41l-2.9,34.7h-38.1v120.5h-48.2V158.1h-25.7V123.4z"/>
		<path class="st2" d="M103.1,123.9h25.7v-23.3c0-10.3,0.3-26.1,8.3-35.9c8.4-10.4,20-17.5,39.9-17.5c32.4,0,46.1,4.3,46.1,4.3
			l-6.4,35.5c0,0-10.7-2.9-20.7-2.9c-10,0-18.9,3.3-18.9,12.7v27.1h41l-2.9,34.7H177v120.5h-48.2V158.6h-25.7V123.9z"/>
		<path class="st2" d="M103.6,124.4h25.7v-23.3c0-10.3,0.3-26.1,8.3-35.9c8.4-10.4,20-17.5,39.9-17.5c32.4,0,46.1,4.3,46.1,4.3
			l-6.4,35.5c0,0-10.7-2.9-20.7-2.9c-10,0-18.9,3.3-18.9,12.7v27.1h41l-2.9,34.7h-38.1v120.5h-48.2V159.1h-25.7V124.4z"/>
		<path class="st2" d="M104.2,124.9h25.7v-23.3c0-10.3,0.3-26.1,8.3-35.9c8.4-10.4,20-17.5,39.9-17.5c32.4,0,46.1,4.3,46.1,4.3
			l-6.4,35.5c0,0-10.7-2.9-20.7-2.9c-10,0-18.9,3.3-18.9,12.7v27.1h41l-2.9,34.7H178v120.5h-48.2V159.6h-25.7V124.9z"/>
		<path class="st2" d="M104.7,125.5h25.7v-23.3c0-10.3,0.3-26.1,8.3-35.9c8.4-10.4,20-17.5,39.9-17.5c32.4,0,46.1,4.3,46.1,4.3
			l-6.4,35.5c0,0-10.7-2.9-20.7-2.9c-10,0-18.9,3.3-18.9,12.7v27.1h41l-2.9,34.7h-38.1v120.5h-48.2V160.2h-25.7V125.5z"/>
		<path class="st2" d="M105.2,126h25.7v-23.3c0-10.3,0.3-26.1,8.3-35.9c8.4-10.4,20-17.5,39.9-17.5c32.4,0,46.1,4.3,46.1,4.3
			l-6.4,35.5c0,0-10.7-2.9-20.7-2.9c-10,0-18.9,3.3-18.9,12.7V126h41l-2.9,34.7H179v120.5h-48.2V160.7h-25.7V126z"/>
		<path class="st2" d="M105.7,126.5h25.7v-23.3c0-10.3,0.3-26.1,8.3-35.9c8.4-10.4,20-17.5,39.9-17.5c32.4,0,46.1,4.3,46.1,4.3
			l-6.4,35.5c0,0-10.7-2.9-20.7-2.9c-10,0-18.9,3.3-18.9,12.7v27.1h41l-2.9,34.7h-38.1v120.5h-48.2V161.2h-25.7V126.5z"/>
		<path class="st2" d="M106.2,127h25.7v-23.3c0-10.3,0.3-26.1,8.3-35.9c8.4-10.4,20-17.5,39.9-17.5c32.4,0,46.1,4.3,46.1,4.3
			l-6.4,35.5c0,0-10.7-2.9-20.7-2.9c-10,0-18.9,3.3-18.9,12.7V127h41l-2.9,34.7h-38.1v120.5h-48.2V161.7h-25.7V127z"/>
		<path class="st2" d="M106.7,127.5h25.7v-23.3c0-10.3,0.3-26.1,8.3-35.9c8.4-10.4,20-17.5,39.9-17.5c32.4,0,46.1,4.3,46.1,4.3
			l-6.4,35.5c0,0-10.7-2.9-20.7-2.9c-10,0-18.9,3.3-18.9,12.7v27.1h41l-2.9,34.7h-38.1v120.5h-48.2V162.2h-25.7V127.5z"/>
		<path class="st2" d="M107.2,128h25.7v-23.3c0-10.3,0.3-26.1,8.3-35.9c8.4-10.4,20-17.5,39.9-17.5c32.4,0,46.1,4.3,46.1,4.3
			l-6.4,35.5c0,0-10.7-2.9-20.7-2.9c-10,0-18.9,3.3-18.9,12.7V128h41l-2.9,34.7h-38.1v120.5h-48.2V162.7h-25.7V128z"/>
		<path class="st2" d="M107.7,128.5h25.7v-23.3c0-10.3,0.3-26.1,8.3-35.9c8.4-10.4,20-17.5,39.9-17.5c32.4,0,46.1,4.3,46.1,4.3
			l-6.4,35.5c0,0-10.7-2.9-20.7-2.9c-10,0-18.9,3.3-18.9,12.7v27.1h41l-2.9,34.7h-38.1v120.5h-48.2V163.2h-25.7V128.5z"/>
		<path class="st2" d="M108.2,129h25.7v-23.3c0-10.3,0.3-26.1,8.3-35.9c8.4-10.4,20-17.5,39.9-17.5c32.4,0,46.1,4.3,46.1,4.3
			l-6.4,35.5c0,0-10.7-2.9-20.7-2.9c-10,0-18.9,3.3-18.9,12.7V129h41l-2.9,34.7h-38.1v120.5h-48.2V163.7h-25.7V129z"/>
		<path class="st2" d="M108.8,129.5h25.7v-23.3c0-10.3,0.3-26.1,8.3-35.9c8.4-10.4,20-17.5,39.9-17.5c32.4,0,46.1,4.3,46.1,4.3
			l-6.4,35.5c0,0-10.7-2.9-20.7-2.9c-10,0-18.9,3.3-18.9,12.7v27.1h41l-2.9,34.7h-38.1v120.5h-48.2V164.2h-25.7V129.5z"/>
		<path class="st2" d="M109.3,130.1H135v-23.3c0-10.3,0.3-26.1,8.3-35.9c8.4-10.4,20-17.5,39.9-17.5c32.4,0,46.1,4.3,46.1,4.3
			l-6.4,35.5c0,0-10.7-2.9-20.7-2.9c-10,0-18.9,3.3-18.9,12.7v27.1h41l-2.9,34.7h-38.1v120.5H135V164.8h-25.7V130.1z"/>
		<path class="st2" d="M109.8,130.6h25.7v-23.3c0-10.3,0.3-26.1,8.3-35.9c8.4-10.4,20-17.5,39.9-17.5c32.4,0,46.1,4.3,46.1,4.3
			l-6.4,35.5c0,0-10.7-2.9-20.7-2.9c-10,0-18.9,3.3-18.9,12.7v27.1h41l-2.9,34.7h-38.1v120.5h-48.2V165.3h-25.7V130.6z"/>
		<path class="st2" d="M110.3,131.1H136v-23.3c0-10.3,0.3-26.1,8.3-35.9c8.4-10.4,20-17.5,39.9-17.5c32.4,0,46.1,4.3,46.1,4.3
			l-6.4,35.5c0,0-10.7-2.9-20.7-2.9c-10,0-18.9,3.3-18.9,12.7v27.1h41l-2.9,34.7h-38.1v120.5H136V165.8h-25.7V131.1z"/>
		<path class="st2" d="M110.8,131.6h25.7v-23.3c0-10.3,0.3-26.1,8.3-35.9c8.4-10.4,20-17.5,39.9-17.5c32.4,0,46.1,4.3,46.1,4.3
			l-6.4,35.5c0,0-10.7-2.9-20.7-2.9c-10,0-18.9,3.3-18.9,12.7v27.1h41l-2.9,34.7h-38.1v120.5h-48.2V166.3h-25.7V131.6z"/>
		<path class="st2" d="M111.3,132.1H137v-23.3c0-10.3,0.3-26.1,8.3-35.9c8.4-10.4,20-17.5,39.9-17.5c32.4,0,46.1,4.3,46.1,4.3
			l-6.4,35.5c0,0-10.7-2.9-20.7-2.9c-10,0-18.9,3.3-18.9,12.7v27.1h41l-2.9,34.7h-38.1v120.5H137V166.8h-25.7V132.1z"/>
		<path class="st2" d="M111.8,132.6h25.7v-23.3c0-10.3,0.3-26.1,8.3-35.9c8.4-10.4,20-17.5,39.9-17.5c32.4,0,46.1,4.3,46.1,4.3
			l-6.4,35.5c0,0-10.7-2.9-20.7-2.9c-10,0-18.9,3.3-18.9,12.7v27.1h41l-2.9,34.7h-38.1v120.5h-48.2V167.3h-25.7V132.6z"/>
		<path class="st2" d="M112.3,133.1H138v-23.3c0-10.3,0.3-26.1,8.3-35.9c8.4-10.4,20-17.5,39.9-17.5c32.4,0,46.1,4.3,46.1,4.3
			l-6.4,35.5c0,0-10.7-2.9-20.7-2.9c-10,0-18.9,3.3-18.9,12.7v27.1h41l-2.9,34.7h-38.1v120.5H138V167.8h-25.7V133.1z"/>
		<path class="st2" d="M112.8,133.6h25.7v-23.3c0-10.3,0.3-26.1,8.3-35.9c8.4-10.4,20-17.5,39.9-17.5c32.4,0,46.1,4.3,46.1,4.3
			l-6.4,35.5c0,0-10.7-2.9-20.7-2.9c-10,0-18.9,3.3-18.9,12.7v27.1h41l-2.9,34.7h-38.1v120.5h-48.2V168.3h-25.7V133.6z"/>
		<path class="st2" d="M113.3,134.1H139v-23.3c0-10.3,0.3-26.1,8.3-35.9c8.4-10.4,20-17.5,39.9-17.5c32.4,0,46.1,4.3,46.1,4.3
			l-6.4,35.5c0,0-10.7-2.9-20.7-2.9c-10,0-18.9,3.3-18.9,12.7v27.1h41l-2.9,34.7h-38.1v120.5H139V168.8h-25.7V134.1z"/>
		<path class="st2" d="M113.9,134.7h25.7v-23.3c0-10.3,0.3-26.1,8.3-35.9c8.4-10.4,20-17.5,39.9-17.5c32.4,0,46.1,4.3,46.1,4.3
			l-6.4,35.5c0,0-10.7-2.9-20.7-2.9c-10,0-18.9,3.3-18.9,12.7v27.1h41l-2.9,34.7h-38.1v120.5h-48.2V169.4h-25.7V134.7z"/>
		<path class="st2" d="M114.4,135.2h25.7v-23.3c0-10.3,0.3-26.1,8.3-35.9c8.4-10.4,20-17.5,39.9-17.5c32.4,0,46.1,4.3,46.1,4.3
			l-6.4,35.5c0,0-10.7-2.9-20.7-2.9c-10,0-18.9,3.3-18.9,12.7v27.1h41l-2.9,34.7h-38.1v120.5h-48.2V169.9h-25.7V135.2z"/>
		<path class="st2" d="M114.9,135.7h25.7v-23.3c0-10.3,0.3-26.1,8.3-35.9c8.4-10.4,20-17.5,39.9-17.5c32.4,0,46.1,4.3,46.1,4.3
			l-6.4,35.5c0,0-10.7-2.9-20.7-2.9c-10,0-18.9,3.3-18.9,12.7v27.1h41l-2.9,34.7h-38.1v120.5h-48.2V170.4h-25.7V135.7z"/>
		<path class="st2" d="M115.4,136.2h25.7v-23.3c0-10.3,0.3-26.1,8.3-35.9c8.4-10.4,20-17.5,39.9-17.5c32.4,0,46.1,4.3,46.1,4.3
			l-6.4,35.5c0,0-10.7-2.9-20.7-2.9c-10,0-18.9,3.3-18.9,12.7v27.1h41l-2.9,34.7h-38.1v120.5h-48.2V170.9h-25.7V136.2z"/>
		<path class="st2" d="M115.9,136.7h25.7v-23.3c0-10.3,0.3-26.1,8.3-35.9c8.4-10.4,20-17.5,39.9-17.5c32.4,0,46.1,4.3,46.1,4.3
			l-6.4,35.5c0,0-10.7-2.9-20.7-2.9c-10,0-18.9,3.3-18.9,12.7v27.1h41l-2.9,34.7h-38.1v120.5h-48.2V171.4h-25.7V136.7z"/>
		<path class="st2" d="M116.4,137.2h25.7v-23.3c0-10.3,0.3-26.1,8.3-35.9c8.4-10.4,20-17.5,39.9-17.5c32.4,0,46.1,4.3,46.1,4.3
			l-6.4,35.5c0,0-10.7-2.9-20.7-2.9c-10,0-18.9,3.3-18.9,12.7v27.1h41l-2.9,34.7h-38.1v120.5h-48.2V171.9h-25.7V137.2z"/>
		<path class="st2" d="M116.9,137.7h25.7v-23.3c0-10.3,0.3-26.1,8.3-35.9c8.4-10.4,20-17.5,39.9-17.5c32.4,0,46.1,4.3,46.1,4.3
			l-6.4,35.5c0,0-10.7-2.9-20.7-2.9c-10,0-18.9,3.3-18.9,12.7v27.1h41l-2.9,34.7h-38.1V293h-48.2V172.4h-25.7V137.7z"/>
		<path class="st2" d="M117.4,138.2h25.7v-23.3c0-10.3,0.3-26.1,8.3-35.9c8.4-10.4,20-17.5,39.9-17.5c32.4,0,46.1,4.3,46.1,4.3
			l-6.4,35.5c0,0-10.7-2.9-20.7-2.9c-10,0-18.9,3.3-18.9,12.7v27.1h41l-2.9,34.7h-38.1v120.5h-48.2V172.9h-25.7V138.2z"/>
		<path class="st2" d="M117.9,138.7h25.7v-23.3c0-10.3,0.3-26.1,8.3-35.9c8.4-10.4,20-17.5,39.9-17.5c32.4,0,46.1,4.3,46.1,4.3
			l-6.4,35.5c0,0-10.7-2.9-20.7-2.9c-10,0-18.9,3.3-18.9,12.7v27.1h41l-2.9,34.7h-38.1V294h-48.2V173.4h-25.7V138.7z"/>
		<path class="st2" d="M118.5,139.3h25.7V116c0-10.3,0.3-26.1,8.3-35.9c8.4-10.4,20-17.5,39.9-17.5c32.4,0,46.1,4.3,46.1,4.3
			l-6.4,35.5c0,0-10.7-2.9-20.7-2.9c-10,0-18.9,3.3-18.9,12.7v27.1h41l-2.9,34.7h-38.1v120.5h-48.2V174h-25.7V139.3z"/>
		<path class="st2" d="M119,139.8h25.7v-23.3c0-10.3,0.3-26.1,8.3-35.9c8.4-10.4,20-17.5,39.9-17.5c32.4,0,46.1,4.3,46.1,4.3
			l-6.4,35.5c0,0-10.7-2.9-20.7-2.9c-10,0-18.9,3.3-18.9,12.7v27.1h41l-2.9,34.7h-38.1V295h-48.2V174.5H119V139.8z"/>
		<path class="st2" d="M119.5,140.3h25.7V117c0-10.3,0.3-26.1,8.3-35.9c8.4-10.4,20-17.5,39.9-17.5c32.4,0,46.1,4.3,46.1,4.3
			l-6.4,35.5c0,0-10.7-2.9-20.7-2.9c-10,0-18.9,3.3-18.9,12.7v27.1h41l-2.9,34.7h-38.1v120.5h-48.2V175h-25.7V140.3z"/>
		<path class="st2" d="M120,140.8h25.7v-23.3c0-10.3,0.3-26.1,8.3-35.9c8.4-10.4,20-17.5,39.9-17.5c32.4,0,46.1,4.3,46.1,4.3
			l-6.4,35.5c0,0-10.7-2.9-20.7-2.9c-10,0-18.9,3.3-18.9,12.7v27.1h41l-2.9,34.7h-38.1V296h-48.2V175.5H120V140.8z"/>
		<path class="st2" d="M120.5,141.3h25.7V118c0-10.3,0.3-26.1,8.3-35.9c8.4-10.4,20-17.5,39.9-17.5c32.4,0,46.1,4.3,46.1,4.3
			l-6.4,35.5c0,0-10.7-2.9-20.7-2.9c-10,0-18.9,3.3-18.9,12.7v27.1h41l-2.9,34.7h-38.1v120.5h-48.2V176h-25.7V141.3z"/>
		<path class="st2" d="M121,141.8h25.7v-23.3c0-10.3,0.3-26.1,8.3-35.9c8.4-10.4,20-17.5,39.9-17.5c32.4,0,46.1,4.3,46.1,4.3
			l-6.4,35.5c0,0-10.7-2.9-20.7-2.9c-10,0-18.9,3.3-18.9,12.7v27.1h41l-2.9,34.7h-38.1V297h-48.2V176.5H121V141.8z"/>
		<path class="st2" d="M121.5,142.3h25.7V119c0-10.3,0.3-26.1,8.3-35.9c8.4-10.4,20-17.5,39.9-17.5c32.4,0,46.1,4.3,46.1,4.3
			l-6.4,35.5c0,0-10.7-2.9-20.7-2.9c-10,0-18.9,3.3-18.9,12.7v27.1h41l-2.9,34.7h-38.1v120.5h-48.2V177h-25.7V142.3z"/>
		<path class="st2" d="M122,142.8h25.7v-23.3c0-10.3,0.3-26.1,8.3-35.9c8.4-10.4,20-17.5,39.9-17.5c32.4,0,46.1,4.3,46.1,4.3
			l-6.4,35.5c0,0-10.7-2.9-20.7-2.9c-10,0-18.9,3.3-18.9,12.7v27.1h41l-2.9,34.7h-38.1v120.5h-48.2V177.5H122V142.8z"/>
		<path class="st2" d="M122.5,143.3h25.7V120c0-10.3,0.3-26.1,8.3-35.9c8.4-10.4,20-17.5,39.9-17.5c32.4,0,46.1,4.3,46.1,4.3
			l-6.4,35.5c0,0-10.7-2.9-20.7-2.9c-10,0-18.9,3.3-18.9,12.7v27.1h41l-2.9,34.7h-38.1v120.5h-48.2V178h-25.7V143.3z"/>
		<path class="st2" d="M123.1,143.9h25.7v-23.3c0-10.3,0.3-26.1,8.3-35.9c8.4-10.4,20-17.5,39.9-17.5c32.4,0,46.1,4.3,46.1,4.3
			l-6.4,35.5c0,0-10.7-2.9-20.7-2.9c-10,0-18.9,3.3-18.9,12.7v27.1h41l-2.9,34.7h-38.1v120.5h-48.2V178.5h-25.7V143.9z"/>
		<path class="st2" d="M123.6,144.4h25.7v-23.3c0-10.3,0.3-26.1,8.3-35.9c8.4-10.4,20-17.5,39.9-17.5c32.4,0,46.1,4.3,46.1,4.3
			l-6.4,35.5c0,0-10.7-2.9-20.7-2.9c-10,0-18.9,3.3-18.9,12.7v27.1h41l-2.9,34.7h-38.1v120.5h-48.2V179.1h-25.7V144.4z"/>
		<path class="st2" d="M124.1,144.9h25.7v-23.3c0-10.3,0.3-26.1,8.3-35.9c8.4-10.4,20-17.5,39.9-17.5c32.4,0,46.1,4.3,46.1,4.3
			l-6.4,35.5c0,0-10.7-2.9-20.7-2.9c-10,0-18.9,3.3-18.9,12.7v27.1h41l-2.9,34.7h-38.1v120.5h-48.2V179.6h-25.7V144.9z"/>
		<path class="st2" d="M124.6,145.4h25.7v-23.3c0-10.3,0.3-26.1,8.3-35.9c8.4-10.4,20-17.5,39.9-17.5c32.4,0,46.1,4.3,46.1,4.3
			l-6.4,35.5c0,0-10.7-2.9-20.7-2.9c-10,0-18.9,3.3-18.9,12.7v27.1h41l-2.9,34.7h-38.1v120.5h-48.2V180.1h-25.7V145.4z"/>
		<path class="st2" d="M125.1,145.9h25.7v-23.3c0-10.3,0.3-26.1,8.3-35.9c8.4-10.4,20-17.5,39.9-17.5c32.4,0,46.1,4.3,46.1,4.3
			l-6.4,35.5c0,0-10.7-2.9-20.7-2.9c-10,0-18.9,3.3-18.9,12.7v27.1h41l-2.9,34.7H199v120.5h-48.2V180.6h-25.7V145.9z"/>
		<path class="st2" d="M125.6,146.4h25.7v-23.3c0-10.3,0.3-26.1,8.3-35.9c8.4-10.4,20-17.5,39.9-17.5c32.4,0,46.1,4.3,46.1,4.3
			l-6.4,35.5c0,0-10.7-2.9-20.7-2.9c-10,0-18.9,3.3-18.9,12.7v27.1h41l-2.9,34.7h-38.1v120.5h-48.2V181.1h-25.7V146.4z"/>
		<path class="st2" d="M126.1,146.9h25.7v-23.3c0-10.3,0.3-26.1,8.3-35.9c8.4-10.4,20-17.5,39.9-17.5c32.4,0,46.1,4.3,46.1,4.3
			l-6.4,35.5c0,0-10.7-2.9-20.7-2.9c-10,0-18.9,3.3-18.9,12.7v27.1h41l-2.9,34.7H200v120.5h-48.2V181.6h-25.7V146.9z"/>
		<path class="st2" d="M126.6,147.4h25.7v-23.3c0-10.3,0.3-26.1,8.3-35.9c8.4-10.4,20-17.5,39.9-17.5c32.4,0,46.1,4.3,46.1,4.3
			l-6.4,35.5c0,0-10.7-2.9-20.7-2.9c-10,0-18.9,3.3-18.9,12.7v27.1h41l-2.9,34.7h-38.1v120.5h-48.2V182.1h-25.7V147.4z"/>
		<path class="st2" d="M127.1,147.9h25.7v-23.3c0-10.3,0.3-26.1,8.3-35.9c8.4-10.4,20-17.5,39.9-17.5c32.4,0,46.1,4.3,46.1,4.3
			l-6.4,35.5c0,0-10.7-2.9-20.7-2.9c-10,0-18.9,3.3-18.9,12.7v27.1h41l-2.9,34.7H201v120.5h-48.2V182.6h-25.7V147.9z"/>
		<path class="st2" d="M127.7,148.4h25.7v-23.3c0-10.3,0.3-26.1,8.3-35.9c8.4-10.4,20-17.5,39.9-17.5c32.4,0,46.1,4.3,46.1,4.3
			l-6.4,35.5c0,0-10.7-2.9-20.7-2.9c-10,0-18.9,3.3-18.9,12.7v27.1h41l-2.9,34.7h-38.1v120.5h-48.2V183.1h-25.7V148.4z"/>
		<path class="st2" d="M128.2,149h25.7v-23.3c0-10.3,0.3-26.1,8.3-35.9c8.4-10.4,20-17.5,39.9-17.5c32.4,0,46.1,4.3,46.1,4.3
			l-6.4,35.5c0,0-10.7-2.9-20.7-2.9c-10,0-18.9,3.3-18.9,12.7V149h41l-2.9,34.7H202v120.5h-48.2V183.7h-25.7V149z"/>
		<path class="st2" d="M128.7,149.5h25.7v-23.3c0-10.3,0.3-26.1,8.3-35.9c8.4-10.4,20-17.5,39.9-17.5c32.4,0,46.1,4.3,46.1,4.3
			l-6.4,35.5c0,0-10.7-2.9-20.7-2.9c-10,0-18.9,3.3-18.9,12.7v27.1h41l-2.9,34.7h-38.1v120.5h-48.2V184.2h-25.7V149.5z"/>
		<path class="st2" d="M129.2,150h25.7v-23.3c0-10.3,0.3-26.1,8.3-35.9c8.4-10.4,20-17.5,39.9-17.5c32.4,0,46.1,4.3,46.1,4.3
			l-6.4,35.5c0,0-10.7-2.9-20.7-2.9c-10,0-18.9,3.3-18.9,12.7V150h41l-2.9,34.7h-38.1v120.5h-48.2V184.7h-25.7V150z"/>
		<path class="st2" d="M129.7,150.5h25.7v-23.3c0-10.3,0.3-26.1,8.3-35.9c8.4-10.4,20-17.5,39.9-17.5c32.4,0,46.1,4.3,46.1,4.3
			l-6.4,35.5c0,0-10.7-2.9-20.7-2.9c-10,0-18.9,3.3-18.9,12.7v27.1h41l-2.9,34.7h-38.1v120.5h-48.2V185.2h-25.7V150.5z"/>
		<path class="st2" d="M130.2,151h25.7v-23.3c0-10.3,0.3-26.1,8.3-35.9c8.4-10.4,20-17.5,39.9-17.5c32.4,0,46.1,4.3,46.1,4.3
			l-6.4,35.5c0,0-10.7-2.9-20.7-2.9c-10,0-18.9,3.3-18.9,12.7V151h41l-2.9,34.7h-38.1v120.5h-48.2V185.7h-25.7V151z"/>
		<path class="st2" d="M130.7,151.5h25.7v-23.3c0-10.3,0.3-26.1,8.3-35.9c8.4-10.4,20-17.5,39.9-17.5c32.4,0,46.1,4.3,46.1,4.3
			l-6.4,35.5c0,0-10.7-2.9-20.7-2.9c-10,0-18.9,3.3-18.9,12.7v27.1h41l-2.9,34.7h-38.1v120.5h-48.2V186.2h-25.7V151.5z"/>
		<path class="st2" d="M131.2,152h25.7v-23.3c0-10.3,0.3-26.1,8.3-35.9c8.4-10.4,20-17.5,39.9-17.5c32.4,0,46.1,4.3,46.1,4.3
			l-6.4,35.5c0,0-10.7-2.9-20.7-2.9c-10,0-18.9,3.3-18.9,12.7V152h41l-2.9,34.7h-38.1v120.5h-48.2V186.7h-25.7V152z"/>
		<path class="st2" d="M131.7,152.5h25.7v-23.3c0-10.3,0.3-26.1,8.3-35.9c8.4-10.4,20-17.5,39.9-17.5c32.4,0,46.1,4.3,46.1,4.3
			l-6.4,35.5c0,0-10.7-2.9-20.7-2.9c-10,0-18.9,3.3-18.9,12.7v27.1h41l-2.9,34.7h-38.1v120.5h-48.2V187.2h-25.7V152.5z"/>
		<path class="st2" d="M132.3,153H158v-23.3c0-10.3,0.3-26.1,8.3-35.9c8.4-10.4,20-17.5,39.9-17.5c32.4,0,46.1,4.3,46.1,4.3
			l-6.4,35.5c0,0-10.7-2.9-20.7-2.9c-10,0-18.9,3.3-18.9,12.7V153h41l-2.9,34.7h-38.1v120.5H158V187.7h-25.7V153z"/>
		<path class="st2" d="M132.8,153.6h25.7v-23.3c0-10.3,0.3-26.1,8.3-35.9c8.4-10.4,20-17.5,39.9-17.5c32.4,0,46.1,4.3,46.1,4.3
			l-6.4,35.5c0,0-10.7-2.9-20.7-2.9c-10,0-18.9,3.3-18.9,12.7v27.1h41l-2.9,34.7h-38.1v120.5h-48.2V188.3h-25.7V153.6z"/>
		<path class="st2" d="M133.3,154.1H159v-23.3c0-10.3,0.3-26.1,8.3-35.9c8.4-10.4,20-17.5,39.9-17.5c32.4,0,46.1,4.3,46.1,4.3
			l-6.4,35.5c0,0-10.7-2.9-20.7-2.9c-10,0-18.9,3.3-18.9,12.7v27.1h41l-2.9,34.7h-38.1v120.5H159V188.8h-25.7V154.1z"/>
		<path class="st2" d="M133.8,154.6h25.7v-23.3c0-10.3,0.3-26.1,8.3-35.9c8.4-10.4,20-17.5,39.9-17.5c32.4,0,46.1,4.3,46.1,4.3
			l-6.4,35.5c0,0-10.7-2.9-20.7-2.9c-10,0-18.9,3.3-18.9,12.7v27.1h41l-2.9,34.7h-38.1v120.5h-48.2V189.3h-25.7V154.6z"/>
		<path class="st2" d="M134.3,155.1H160v-23.3c0-10.3,0.3-26.1,8.3-35.9c8.4-10.4,20-17.5,39.9-17.5c32.4,0,46.1,4.3,46.1,4.3
			l-6.4,35.5c0,0-10.7-2.9-20.7-2.9c-10,0-18.9,3.3-18.9,12.7v27.1h41l-2.9,34.7h-38.1v120.5H160V189.8h-25.7V155.1z"/>
		<path class="st2" d="M134.8,155.6h25.7v-23.3c0-10.3,0.3-26.1,8.3-35.9c8.4-10.4,20-17.5,39.9-17.5c32.4,0,46.1,4.3,46.1,4.3
			l-6.4,35.5c0,0-10.7-2.9-20.7-2.9c-10,0-18.9,3.3-18.9,12.7v27.1h41l-2.9,34.7h-38.1v120.5h-48.2V190.3h-25.7V155.6z"/>
		<path class="st2" d="M135.3,156.1H161v-23.3c0-10.3,0.3-26.1,8.3-35.9c8.4-10.4,20-17.5,39.9-17.5c32.4,0,46.1,4.3,46.1,4.3
			l-6.4,35.5c0,0-10.7-2.9-20.7-2.9c-10,0-18.9,3.3-18.9,12.7v27.1h41l-2.9,34.7h-38.1v120.5H161V190.8h-25.7V156.1z"/>
		<path class="st2" d="M135.8,156.6h25.7v-23.3c0-10.3,0.3-26.1,8.3-35.9c8.4-10.4,20-17.5,39.9-17.5c32.4,0,46.1,4.3,46.1,4.3
			l-6.4,35.5c0,0-10.7-2.9-20.7-2.9c-10,0-18.9,3.3-18.9,12.7v27.1h41l-2.9,34.7h-38.1v120.5h-48.2V191.3h-25.7V156.6z"/>
		<path class="st2" d="M136.3,157.1H162v-23.3c0-10.3,0.3-26.1,8.3-35.9c8.4-10.4,20-17.5,39.9-17.5c32.4,0,46.1,4.3,46.1,4.3
			l-6.4,35.5c0,0-10.7-2.9-20.7-2.9c-10,0-18.9,3.3-18.9,12.7v27.1h41l-2.9,34.7h-38.1v120.5H162V191.8h-25.7V157.1z"/>
		<path class="st2" d="M136.8,157.6h25.7v-23.3c0-10.3,0.3-26.1,8.3-35.9c8.4-10.4,20-17.5,39.9-17.5c32.4,0,46.1,4.3,46.1,4.3
			l-6.4,35.5c0,0-10.7-2.9-20.7-2.9c-10,0-18.9,3.3-18.9,12.7v27.1h41l-2.9,34.7h-38.1v120.5h-48.2V192.3h-25.7V157.6z"/>
		<path class="st2" d="M137.4,158.2h25.7v-23.3c0-10.3,0.3-26.1,8.3-35.9c8.4-10.4,20-17.5,39.9-17.5c32.4,0,46.1,4.3,46.1,4.3
			l-6.4,35.5c0,0-10.7-2.9-20.7-2.9c-10,0-18.9,3.3-18.9,12.7v27.1h41l-2.9,34.7h-38.1v120.5h-48.2V192.9h-25.7V158.2z"/>
		<path class="st2" d="M137.9,158.7h25.7v-23.3c0-10.3,0.3-26.1,8.3-35.9c8.4-10.4,20-17.5,39.9-17.5c32.4,0,46.1,4.3,46.1,4.3
			l-6.4,35.5c0,0-10.7-2.9-20.7-2.9c-10,0-18.9,3.3-18.9,12.7v27.1h41l-2.9,34.7h-38.1v120.5h-48.2V193.4h-25.7V158.7z"/>
		<path class="st2" d="M138.4,159.2h25.7v-23.3c0-10.3,0.3-26.1,8.3-35.9c8.4-10.4,20-17.5,39.9-17.5c32.4,0,46.1,4.3,46.1,4.3
			l-6.4,35.5c0,0-10.7-2.9-20.7-2.9c-10,0-18.9,3.3-18.9,12.7v27.1h41l-2.9,34.7h-38.1v120.5h-48.2V193.9h-25.7V159.2z"/>
		<path class="st2" d="M138.9,159.7h25.7v-23.3c0-10.3,0.3-26.1,8.3-35.9c8.4-10.4,20-17.5,39.9-17.5c32.4,0,46.1,4.3,46.1,4.3
			l-6.4,35.5c0,0-10.7-2.9-20.7-2.9c-10,0-18.9,3.3-18.9,12.7v27.1h41l-2.9,34.7h-38.1v120.5h-48.2V194.4h-25.7V159.7z"/>
		<path class="st2" d="M139.4,160.2h25.7v-23.3c0-10.3,0.3-26.1,8.3-35.9c8.4-10.4,20-17.5,39.9-17.5c32.4,0,46.1,4.3,46.1,4.3
			l-6.4,35.5c0,0-10.7-2.9-20.7-2.9c-10,0-18.9,3.3-18.9,12.7v27.1h41l-2.9,34.7h-38.1v120.5h-48.2V194.9h-25.7V160.2z"/>
		<path class="st2" d="M139.9,160.7h25.7v-23.3c0-10.3,0.3-26.1,8.3-35.9c8.4-10.4,20-17.5,39.9-17.5c32.4,0,46.1,4.3,46.1,4.3
			l-6.4,35.5c0,0-10.7-2.9-20.7-2.9c-10,0-18.9,3.3-18.9,12.7v27.1h41l-2.9,34.7h-38.1v120.5h-48.2V195.4h-25.7V160.7z"/>
		<path class="st2" d="M140.4,161.2h25.7v-23.3c0-10.3,0.3-26.1,8.3-35.9c8.4-10.4,20-17.5,39.9-17.5c32.4,0,46.1,4.3,46.1,4.3
			l-6.4,35.5c0,0-10.7-2.9-20.7-2.9c-10,0-18.9,3.3-18.9,12.7v27.1h41l-2.9,34.7h-38.1v120.5h-48.2V195.9h-25.7V161.2z"/>
		<path class="st2" d="M140.9,161.7h25.7v-23.3c0-10.3,0.3-26.1,8.3-35.9c8.4-10.4,20-17.5,39.9-17.5c32.4,0,46.1,4.3,46.1,4.3
			l-6.4,35.5c0,0-10.7-2.9-20.7-2.9c-10,0-18.9,3.3-18.9,12.7v27.1h41l-2.9,34.7h-38.1V317h-48.2V196.4h-25.7V161.7z"/>
		<path class="st2" d="M141.4,162.2h25.7v-23.3c0-10.3,0.3-26.1,8.3-35.9c8.4-10.4,20-17.5,39.9-17.5c32.4,0,46.1,4.3,46.1,4.3
			l-6.4,35.5c0,0-10.7-2.9-20.7-2.9c-10,0-18.9,3.3-18.9,12.7v27.1h41l-2.9,34.7h-38.1v120.5h-48.2V196.9h-25.7V162.2z"/>
		<path class="st2" d="M142,162.8h25.7v-23.3c0-10.3,0.3-26.1,8.3-35.9c8.4-10.4,20-17.5,39.9-17.5c32.4,0,46.1,4.3,46.1,4.3
			l-6.4,35.5c0,0-10.7-2.9-20.7-2.9c-10,0-18.9,3.3-18.9,12.7v27.1h41l-2.9,34.7h-38.1V318h-48.2V197.5H142V162.8z"/>
		<path class="st2" d="M142.5,163.3h25.7V140c0-10.3,0.3-26.1,8.3-35.9c8.4-10.4,20-17.5,39.9-17.5c32.4,0,46.1,4.3,46.1,4.3
			l-6.4,35.5c0,0-10.7-2.9-20.7-2.9c-10,0-18.9,3.3-18.9,12.7v27.1h41l-2.9,34.7h-38.1v120.5h-48.2V198h-25.7V163.3z"/>
		<path class="st2" d="M143,163.8h25.7v-23.3c0-10.3,0.3-26.1,8.3-35.9c8.4-10.4,20-17.5,39.9-17.5c32.4,0,46.1,4.3,46.1,4.3
			l-6.4,35.5c0,0-10.7-2.9-20.7-2.9c-10,0-18.9,3.3-18.9,12.7v27.1h41l-2.9,34.7h-38.1V319h-48.2V198.5H143V163.8z"/>
		<path class="st2" d="M143.5,164.3h25.7V141c0-10.3,0.3-26.1,8.3-35.9c8.4-10.4,20-17.5,39.9-17.5c32.4,0,46.1,4.3,46.1,4.3
			l-6.4,35.5c0,0-10.7-2.9-20.7-2.9c-10,0-18.9,3.3-18.9,12.7v27.1h41l-2.9,34.7h-38.1v120.5h-48.2V199h-25.7V164.3z"/>
		<path class="st2" d="M144,164.8h25.7v-23.3c0-10.3,0.3-26.1,8.3-35.9c8.4-10.4,20-17.5,39.9-17.5c32.4,0,46.1,4.3,46.1,4.3
			l-6.4,35.5c0,0-10.7-2.9-20.7-2.9c-10,0-18.9,3.3-18.9,12.7v27.1h41l-2.9,34.7h-38.1V320h-48.2V199.5H144V164.8z"/>
		<path class="st2" d="M144.5,165.3h25.7V142c0-10.3,0.3-26.1,8.3-35.9c8.4-10.4,20-17.5,39.9-17.5c32.4,0,46.1,4.3,46.1,4.3
			l-6.4,35.5c0,0-10.7-2.9-20.7-2.9c-10,0-18.9,3.3-18.9,12.7v27.1h41l-2.9,34.7h-38.1v120.5h-48.2V200h-25.7V165.3z"/>
		<path class="st2" d="M145,165.8h25.7v-23.3c0-10.3,0.3-26.1,8.3-35.9c8.4-10.4,20-17.5,39.9-17.5c32.4,0,46.1,4.3,46.1,4.3
			l-6.4,35.5c0,0-10.7-2.9-20.7-2.9c-10,0-18.9,3.3-18.9,12.7v27.1h41l-2.9,34.7h-38.1v120.5h-48.2V200.5H145V165.8z"/>
		<path class="st2" d="M145.5,166.3h25.7V143c0-10.3,0.3-26.1,8.3-35.9c8.4-10.4,20-17.5,39.9-17.5c32.4,0,46.1,4.3,46.1,4.3
			l-6.4,35.5c0,0-10.7-2.9-20.7-2.9c-10,0-18.9,3.3-18.9,12.7v27.1h41l-2.9,34.7h-38.1v120.5h-48.2V201h-25.7V166.3z"/>
		<path class="st2" d="M146,166.8h25.7v-23.3c0-10.3,0.3-26.1,8.3-35.9c8.4-10.4,20-17.5,39.9-17.5c32.4,0,46.1,4.3,46.1,4.3
			l-6.4,35.5c0,0-10.7-2.9-20.7-2.9c-10,0-18.9,3.3-18.9,12.7v27.1h41l-2.9,34.7h-38.1v120.5h-48.2V201.5H146V166.8z"/>
		<path class="st2" d="M146.6,167.4h25.7v-23.3c0-10.3,0.3-26.1,8.3-35.9c8.4-10.4,20-17.5,39.9-17.5c32.4,0,46.1,4.3,46.1,4.3
			l-6.4,35.5c0,0-10.7-2.9-20.7-2.9c-10,0-18.9,3.3-18.9,12.7v27.1h41l-2.9,34.7h-38.1v120.5h-48.2V202.1h-25.7V167.4z"/>
		<path class="st2" d="M147.1,167.9h25.7v-23.3c0-10.3,0.3-26.1,8.3-35.9c8.4-10.4,20-17.5,39.9-17.5c32.4,0,46.1,4.3,46.1,4.3
			l-6.4,35.5c0,0-10.7-2.9-20.7-2.9c-10,0-18.9,3.3-18.9,12.7v27.1h41l-2.9,34.7h-38.1v120.5h-48.2V202.6h-25.7V167.9z"/>
		<path class="st2" d="M147.6,168.4h25.7v-23.3c0-10.3,0.3-26.1,8.3-35.9c8.4-10.4,20-17.5,39.9-17.5c32.4,0,46.1,4.3,46.1,4.3
			l-6.4,35.5c0,0-10.7-2.9-20.7-2.9c-10,0-18.9,3.3-18.9,12.7v27.1h41l-2.9,34.7h-38.1v120.5h-48.2V203.1h-25.7V168.4z"/>
		<path class="st2" d="M148.1,168.9h25.7v-23.3c0-10.3,0.3-26.1,8.3-35.9c8.4-10.4,20-17.5,39.9-17.5c32.4,0,46.1,4.3,46.1,4.3
			l-6.4,35.5c0,0-10.7-2.9-20.7-2.9c-10,0-18.9,3.3-18.9,12.7v27.1h41l-2.9,34.7H222v120.5h-48.2V203.6h-25.7V168.9z"/>
		<path class="st2" d="M148.6,169.4h25.7v-23.3c0-10.3,0.3-26.1,8.3-35.9c8.4-10.4,20-17.5,39.9-17.5c32.4,0,46.1,4.3,46.1,4.3
			l-6.4,35.5c0,0-10.7-2.9-20.7-2.9c-10,0-18.9,3.3-18.9,12.7v27.1h41l-2.9,34.7h-38.1v120.5h-48.2V204.1h-25.7V169.4z"/>
		<path class="st2" d="M149.1,169.9h25.7v-23.3c0-10.3,0.3-26.1,8.3-35.9c8.4-10.4,20-17.5,39.9-17.5c32.4,0,46.1,4.3,46.1,4.3
			l-6.4,35.5c0,0-10.7-2.9-20.7-2.9c-10,0-18.9,3.3-18.9,12.7v27.1h41l-2.9,34.7H223v120.5h-48.2V204.6h-25.7V169.9z"/>
		<path class="st2" d="M149.6,170.4h25.7v-23.3c0-10.3,0.3-26.1,8.3-35.9c8.4-10.4,20-17.5,39.9-17.5c32.4,0,46.1,4.3,46.1,4.3
			l-6.4,35.5c0,0-10.7-2.9-20.7-2.9c-10,0-18.9,3.3-18.9,12.7v27.1h41l-2.9,34.7h-38.1v120.5h-48.2V205.1h-25.7V170.4z"/>
		<path class="st2" d="M150.1,170.9h25.7v-23.3c0-10.3,0.3-26.1,8.3-35.9c8.4-10.4,20-17.5,39.9-17.5c32.4,0,46.1,4.3,46.1,4.3
			l-6.4,35.5c0,0-10.7-2.9-20.7-2.9c-10,0-18.9,3.3-18.9,12.7v27.1h41l-2.9,34.7H224v120.5h-48.2V205.6h-25.7V170.9z"/>
		<path class="st2" d="M150.6,171.4h25.7v-23.3c0-10.3,0.3-26.1,8.3-35.9c8.4-10.4,20-17.5,39.9-17.5c32.4,0,46.1,4.3,46.1,4.3
			l-6.4,35.5c0,0-10.7-2.9-20.7-2.9c-10,0-18.9,3.3-18.9,12.7v27.1h41l-2.9,34.7h-38.1v120.5h-48.2V206.1h-25.7V171.4z"/>
		<path class="st2" d="M151.2,172h25.7v-23.3c0-10.3,0.3-26.1,8.3-35.9c8.4-10.4,20-17.5,39.9-17.5c32.4,0,46.1,4.3,46.1,4.3
			l-6.4,35.5c0,0-10.7-2.9-20.7-2.9c-10,0-18.9,3.3-18.9,12.7V172h41l-2.9,34.7H225v120.5h-48.2V206.6h-25.7V172z"/>
		<path class="st2" d="M151.7,172.5h25.7v-23.3c0-10.3,0.3-26.1,8.3-35.9c8.4-10.4,20-17.5,39.9-17.5c32.4,0,46.1,4.3,46.1,4.3
			l-6.4,35.5c0,0-10.7-2.9-20.7-2.9c-10,0-18.9,3.3-18.9,12.7v27.1h41l-2.9,34.7h-38.1v120.5h-48.2V207.2h-25.7V172.5z"/>
		<path class="st2" d="M152.2,173h25.7v-23.3c0-10.3,0.3-26.1,8.3-35.9c8.4-10.4,20-17.5,39.9-17.5c32.4,0,46.1,4.3,46.1,4.3
			l-6.4,35.5c0,0-10.7-2.9-20.7-2.9c-10,0-18.9,3.3-18.9,12.7V173h41l-2.9,34.7H226v120.5h-48.2V207.7h-25.7V173z"/>
		<path class="st2" d="M152.7,173.5h25.7v-23.3c0-10.3,0.3-26.1,8.3-35.9c8.4-10.4,20-17.5,39.9-17.5c32.4,0,46.1,4.3,46.1,4.3
			l-6.4,35.5c0,0-10.7-2.9-20.7-2.9c-10,0-18.9,3.3-18.9,12.7v27.1h41l-2.9,34.7h-38.1v120.5h-48.2V208.2h-25.7V173.5z"/>
		<path class="st2" d="M153.2,174h25.7v-23.3c0-10.3,0.3-26.1,8.3-35.9c8.4-10.4,20-17.5,39.9-17.5c32.4,0,46.1,4.3,46.1,4.3
			l-6.4,35.5c0,0-10.7-2.9-20.7-2.9c-10,0-18.9,3.3-18.9,12.7V174h41l-2.9,34.7h-38.1v120.5h-48.2V208.7h-25.7V174z"/>
		<path class="st2" d="M153.7,174.5h25.7v-23.3c0-10.3,0.3-26.1,8.3-35.9c8.4-10.4,20-17.5,39.9-17.5c32.4,0,46.1,4.3,46.1,4.3
			l-6.4,35.5c0,0-10.7-2.9-20.7-2.9c-10,0-18.9,3.3-18.9,12.7v27.1h41l-2.9,34.7h-38.1v120.5h-48.2V209.2h-25.7V174.5z"/>
		<path class="st2" d="M154.2,175h25.7v-23.3c0-10.3,0.3-26.1,8.3-35.9c8.4-10.4,20-17.5,39.9-17.5c32.4,0,46.1,4.3,46.1,4.3
			l-6.4,35.5c0,0-10.7-2.9-20.7-2.9c-10,0-18.9,3.3-18.9,12.7V175h41l-2.9,34.7h-38.1v120.5h-48.2V209.7h-25.7V175z"/>
		<path class="st2" d="M154.7,175.5h25.7v-23.3c0-10.3,0.3-26.1,8.3-35.9c8.4-10.4,20-17.5,39.9-17.5c32.4,0,46.1,4.3,46.1,4.3
			l-6.4,35.5c0,0-10.7-2.9-20.7-2.9c-10,0-18.9,3.3-18.9,12.7v27.1h41l-2.9,34.7h-38.1v120.5h-48.2V210.2h-25.7V175.5z"/>
		<path class="st2" d="M155.2,176h25.7v-23.3c0-10.3,0.3-26.1,8.3-35.9c8.4-10.4,20-17.5,39.9-17.5c32.4,0,46.1,4.3,46.1,4.3
			l-6.4,35.5c0,0-10.7-2.9-20.7-2.9c-10,0-18.9,3.3-18.9,12.7V176h41l-2.9,34.7h-38.1v120.5h-48.2V210.7h-25.7V176z"/>
		<path class="st2" d="M155.8,176.5h25.7v-23.3c0-10.3,0.3-26.1,8.3-35.9c8.4-10.4,20-17.5,39.9-17.5c32.4,0,46.1,4.3,46.1,4.3
			l-6.4,35.5c0,0-10.7-2.9-20.7-2.9c-10,0-18.9,3.3-18.9,12.7v27.1h41l-2.9,34.7h-38.1v120.5h-48.2V211.2h-25.7V176.5z"/>
		<path class="st2" d="M156.3,177.1H182v-23.3c0-10.3,0.3-26.1,8.3-35.9c8.4-10.4,20-17.5,39.9-17.5c32.4,0,46.1,4.3,46.1,4.3
			l-6.4,35.5c0,0-10.7-2.9-20.7-2.9c-10,0-18.9,3.3-18.9,12.7v27.1h41l-2.9,34.7h-38.1v120.5H182V211.8h-25.7V177.1z"/>
		<path class="st2" d="M156.8,177.6h25.7v-23.3c0-10.3,0.3-26.1,8.3-35.9c8.4-10.4,20-17.5,39.9-17.5c32.4,0,46.1,4.3,46.1,4.3
			l-6.4,35.5c0,0-10.7-2.9-20.7-2.9c-10,0-18.9,3.3-18.9,12.7v27.1h41l-2.9,34.7h-38.1v120.5h-48.2V212.3h-25.7V177.6z"/>
		<path class="st2" d="M157.3,178.1H183v-23.3c0-10.3,0.3-26.1,8.3-35.9c8.4-10.4,20-17.5,39.9-17.5c32.4,0,46.1,4.3,46.1,4.3
			l-6.4,35.5c0,0-10.7-2.9-20.7-2.9c-10,0-18.9,3.3-18.9,12.7v27.1h41l-2.9,34.7h-38.1v120.5H183V212.8h-25.7V178.1z"/>
		<path class="st2" d="M157.8,178.6h25.7v-23.3c0-10.3,0.3-26.1,8.3-35.9c8.4-10.4,20-17.5,39.9-17.5c32.4,0,46.1,4.3,46.1,4.3
			l-6.4,35.5c0,0-10.7-2.9-20.7-2.9c-10,0-18.9,3.3-18.9,12.7v27.1h41l-2.9,34.7h-38.1v120.5h-48.2V213.3h-25.7V178.6z"/>
		<path class="st2" d="M158.3,179.1H184v-23.3c0-10.3,0.3-26.1,8.3-35.9c8.4-10.4,20-17.5,39.9-17.5c32.4,0,46.1,4.3,46.1,4.3
			l-6.4,35.5c0,0-10.7-2.9-20.7-2.9c-10,0-18.9,3.3-18.9,12.7v27.1h41l-2.9,34.7h-38.1v120.5H184V213.8h-25.7V179.1z"/>
		<path class="st2" d="M158.8,179.6h25.7v-23.3c0-10.3,0.3-26.1,8.3-35.9c8.4-10.4,20-17.5,39.9-17.5c32.4,0,46.1,4.3,46.1,4.3
			l-6.4,35.5c0,0-10.7-2.9-20.7-2.9c-10,0-18.9,3.3-18.9,12.7v27.1h41l-2.9,34.7h-38.1v120.5h-48.2V214.3h-25.7V179.6z"/>
		<path class="st2" d="M159.3,180.1H185v-23.3c0-10.3,0.3-26.1,8.3-35.9c8.4-10.4,20-17.5,39.9-17.5c32.4,0,46.1,4.3,46.1,4.3
			l-6.4,35.5c0,0-10.7-2.9-20.7-2.9c-10,0-18.9,3.3-18.9,12.7v27.1h41l-2.9,34.7h-38.1v120.5H185V214.8h-25.7V180.1z"/>
		<path class="st2" d="M159.8,180.6h25.7v-23.3c0-10.3,0.3-26.1,8.3-35.9c8.4-10.4,20-17.5,39.9-17.5c32.4,0,46.1,4.3,46.1,4.3
			l-6.4,35.5c0,0-10.7-2.9-20.7-2.9c-10,0-18.9,3.3-18.9,12.7v27.1h41l-2.9,34.7h-38.1v120.5h-48.2V215.3h-25.7V180.6z"/>
		<path class="st2" d="M160.4,181.1H186v-23.3c0-10.3,0.3-26.1,8.3-35.9c8.4-10.4,20-17.5,39.9-17.5c32.4,0,46.1,4.3,46.1,4.3
			l-6.4,35.5c0,0-10.7-2.9-20.7-2.9c-10,0-18.9,3.3-18.9,12.7v27.1h41l-2.9,34.7h-38.1v120.5H186V215.8h-25.7V181.1z"/>
		<path class="st2" d="M160.9,181.7h25.7v-23.3c0-10.3,0.3-26.1,8.3-35.9c8.4-10.4,20-17.5,39.9-17.5c32.4,0,46.1,4.3,46.1,4.3
			l-6.4,35.5c0,0-10.7-2.9-20.7-2.9c-10,0-18.9,3.3-18.9,12.7v27.1h41l-2.9,34.7h-38.1v120.5h-48.2V216.4h-25.7V181.7z"/>
		<path class="st2" d="M161.4,182.2h25.7v-23.3c0-10.3,0.3-26.1,8.3-35.9c8.4-10.4,20-17.5,39.9-17.5c32.4,0,46.1,4.3,46.1,4.3
			l-6.4,35.5c0,0-10.7-2.9-20.7-2.9c-10,0-18.9,3.3-18.9,12.7v27.1h41l-2.9,34.7h-38.1v120.5h-48.2V216.9h-25.7V182.2z"/>
		<path class="st2" d="M161.9,182.7h25.7v-23.3c0-10.3,0.3-26.1,8.3-35.9c8.4-10.4,20-17.5,39.9-17.5c32.4,0,46.1,4.3,46.1,4.3
			l-6.4,35.5c0,0-10.7-2.9-20.7-2.9c-10,0-18.9,3.3-18.9,12.7v27.1h41l-2.9,34.7h-38.1v120.5h-48.2V217.4h-25.7V182.7z"/>
		<path class="st2" d="M162.4,183.2h25.7v-23.3c0-10.3,0.3-26.1,8.3-35.9c8.4-10.4,20-17.5,39.9-17.5c32.4,0,46.1,4.3,46.1,4.3
			l-6.4,35.5c0,0-10.7-2.9-20.7-2.9c-10,0-18.9,3.3-18.9,12.7v27.1h41l-2.9,34.7h-38.1v120.5h-48.2V217.9h-25.7V183.2z"/>
		<path class="st2" d="M162.9,183.7h25.7v-23.3c0-10.3,0.3-26.1,8.3-35.9c8.4-10.4,20-17.5,39.9-17.5c32.4,0,46.1,4.3,46.1,4.3
			l-6.4,35.5c0,0-10.7-2.9-20.7-2.9c-10,0-18.9,3.3-18.9,12.7v27.1h41l-2.9,34.7h-38.1v120.5h-48.2V218.4h-25.7V183.7z"/>
		<path class="st2" d="M163.4,184.2h25.7v-23.3c0-10.3,0.3-26.1,8.3-35.9c8.4-10.4,20-17.5,39.9-17.5c32.4,0,46.1,4.3,46.1,4.3
			l-6.4,35.5c0,0-10.7-2.9-20.7-2.9c-10,0-18.9,3.3-18.9,12.7v27.1h41l-2.9,34.7h-38.1v120.5h-48.2V218.9h-25.7V184.2z"/>
		<path class="st2" d="M163.9,184.7h25.7v-23.3c0-10.3,0.3-26.1,8.3-35.9c8.4-10.4,20-17.5,39.9-17.5c32.4,0,46.1,4.3,46.1,4.3
			l-6.4,35.5c0,0-10.7-2.9-20.7-2.9c-10,0-18.9,3.3-18.9,12.7v27.1h41l-2.9,34.7h-38.1V340h-48.2V219.4h-25.7V184.7z"/>
		<path class="st2" d="M164.4,185.2h25.7v-23.3c0-10.3,0.3-26.1,8.3-35.9c8.4-10.4,20-17.5,39.9-17.5c32.4,0,46.1,4.3,46.1,4.3
			l-6.4,35.5c0,0-10.7-2.9-20.7-2.9c-10,0-18.9,3.3-18.9,12.7v27.1h41l-2.9,34.7h-38.1v120.5h-48.2V219.9h-25.7V185.2z"/>
		<path class="st2" d="M164.9,185.7h25.7v-23.3c0-10.3,0.3-26.1,8.3-35.9c8.4-10.4,20-17.5,39.9-17.5c32.4,0,46.1,4.3,46.1,4.3
			l-6.4,35.5c0,0-10.7-2.9-20.7-2.9c-10,0-18.9,3.3-18.9,12.7v27.1h41l-2.9,34.7h-38.1V341h-48.2V220.4h-25.7V185.7z"/>
		<path class="st2" d="M165.5,186.3h25.7V163c0-10.3,0.3-26.1,8.3-35.9c8.4-10.4,20-17.5,39.9-17.5c32.4,0,46.1,4.3,46.1,4.3
			l-6.4,35.5c0,0-10.7-2.9-20.7-2.9c-10,0-18.9,3.3-18.9,12.7v27.1h41l-2.9,34.7h-38.1v120.5h-48.2V221h-25.7V186.3z"/>
		<path class="st2" d="M166,186.8h25.7v-23.3c0-10.3,0.3-26.1,8.3-35.9c8.4-10.4,20-17.5,39.9-17.5c32.4,0,46.1,4.3,46.1,4.3
			l-6.4,35.5c0,0-10.7-2.9-20.7-2.9c-10,0-18.9,3.3-18.9,12.7v27.1h41l-2.9,34.7h-38.1V342h-48.2V221.5H166V186.8z"/>
		<path class="st2" d="M166.5,187.3h25.7V164c0-10.3,0.3-26.1,8.3-35.9c8.4-10.4,20-17.5,39.9-17.5c32.4,0,46.1,4.3,46.1,4.3
			l-6.4,35.5c0,0-10.7-2.9-20.7-2.9c-10,0-18.9,3.3-18.9,12.7v27.1h41l-2.9,34.7h-38.1v120.5h-48.2V222h-25.7V187.3z"/>
		<path class="st2" d="M167,187.8h25.7v-23.3c0-10.3,0.3-26.1,8.3-35.9c8.4-10.4,20-17.5,39.9-17.5c32.4,0,46.1,4.3,46.1,4.3
			l-6.4,35.5c0,0-10.7-2.9-20.7-2.9c-10,0-18.9,3.3-18.9,12.7v27.1h41l-2.9,34.7h-38.1V343h-48.2V222.5H167V187.8z"/>
		<path class="st2" d="M167.5,188.3h25.7V165c0-10.3,0.3-26.1,8.3-35.9c8.4-10.4,20-17.5,39.9-17.5c32.4,0,46.1,4.3,46.1,4.3
			l-6.4,35.5c0,0-10.7-2.9-20.7-2.9c-10,0-18.9,3.3-18.9,12.7v27.1h41l-2.9,34.7h-38.1v120.5h-48.2V223h-25.7V188.3z"/>
		<path class="st2" d="M168,188.8h25.7v-23.3c0-10.3,0.3-26.1,8.3-35.9c8.4-10.4,20-17.5,39.9-17.5c32.4,0,46.1,4.3,46.1,4.3
			l-6.4,35.5c0,0-10.7-2.9-20.7-2.9c-10,0-18.9,3.3-18.9,12.7v27.1h41l-2.9,34.7h-38.1V344h-48.2V223.5H168V188.8z"/>
		<path class="st2" d="M168.5,189.3h25.7V166c0-10.3,0.3-26.1,8.3-35.9c8.4-10.4,20-17.5,39.9-17.5c32.4,0,46.1,4.3,46.1,4.3
			l-6.4,35.5c0,0-10.7-2.9-20.7-2.9c-10,0-18.9,3.3-18.9,12.7v27.1h41l-2.9,34.7h-38.1v120.5h-48.2V224h-25.7V189.3z"/>
		<path class="st2" d="M169,189.8h25.7v-23.3c0-10.3,0.3-26.1,8.3-35.9c8.4-10.4,20-17.5,39.9-17.5c32.4,0,46.1,4.3,46.1,4.3
			l-6.4,35.5c0,0-10.7-2.9-20.7-2.9c-10,0-18.9,3.3-18.9,12.7v27.1h41l-2.9,34.7h-38.1v120.5h-48.2V224.5H169V189.8z"/>
		<path class="st2" d="M169.5,190.3h25.7V167c0-10.3,0.3-26.1,8.3-35.9c8.4-10.4,20-17.5,39.9-17.5c32.4,0,46.1,4.3,46.1,4.3
			l-6.4,35.5c0,0-10.7-2.9-20.7-2.9c-10,0-18.9,3.3-18.9,12.7v27.1h41l-2.9,34.7h-38.1v120.5h-48.2V225h-25.7V190.3z"/>
		<path class="st2" d="M170.1,190.9h25.7v-23.3c0-10.3,0.3-26.1,8.3-35.9c8.4-10.4,20-17.5,39.9-17.5c32.4,0,46.1,4.3,46.1,4.3
			l-6.4,35.5c0,0-10.7-2.9-20.7-2.9c-10,0-18.9,3.3-18.9,12.7v27.1h41l-2.9,34.7h-38.1v120.5h-48.2V225.6h-25.7V190.9z"/>
		<path class="st2" d="M170.6,191.4h25.7v-23.3c0-10.3,0.3-26.1,8.3-35.9c8.4-10.4,20-17.5,39.9-17.5c32.4,0,46.1,4.3,46.1,4.3
			l-6.4,35.5c0,0-10.7-2.9-20.7-2.9c-10,0-18.9,3.3-18.9,12.7v27.1h41l-2.9,34.7h-38.1v120.5h-48.2V226.1h-25.7V191.4z"/>
		<path class="st2" d="M171.1,191.9h25.7v-23.3c0-10.3,0.3-26.1,8.3-35.9c8.4-10.4,20-17.5,39.9-17.5c32.4,0,46.1,4.3,46.1,4.3
			l-6.4,35.5c0,0-10.7-2.9-20.7-2.9c-10,0-18.9,3.3-18.9,12.7v27.1h41l-2.9,34.7H245v120.5h-48.2V226.6h-25.7V191.9z"/>
		<path class="st2" d="M171.6,192.4h25.7v-23.3c0-10.3,0.3-26.1,8.3-35.9c8.4-10.4,20-17.5,39.9-17.5c32.4,0,46.1,4.3,46.1,4.3
			l-6.4,35.5c0,0-10.7-2.9-20.7-2.9c-10,0-18.9,3.3-18.9,12.7v27.1h41l-2.9,34.7h-38.1v120.5h-48.2V227.1h-25.7V192.4z"/>
		<path class="st2" d="M172.1,192.9h25.7v-23.3c0-10.3,0.3-26.1,8.3-35.9c8.4-10.4,20-17.5,39.9-17.5c32.4,0,46.1,4.3,46.1,4.3
			l-6.4,35.5c0,0-10.7-2.9-20.7-2.9c-10,0-18.9,3.3-18.9,12.7v27.1h41l-2.9,34.7H246v120.5h-48.2V227.6h-25.7V192.9z"/>
		<path class="st2" d="M172.6,193.4h25.7v-23.3c0-10.3,0.3-26.1,8.3-35.9c8.4-10.4,20-17.5,39.9-17.5c32.4,0,46.1,4.3,46.1,4.3
			l-6.4,35.5c0,0-10.7-2.9-20.7-2.9c-10,0-18.9,3.3-18.9,12.7v27.1h41l-2.9,34.7h-38.1v120.5h-48.2V228.1h-25.7V193.4z"/>
		<path class="st2" d="M173.1,193.9h25.7v-23.3c0-10.3,0.3-26.1,8.3-35.9c8.4-10.4,20-17.5,39.9-17.5c32.4,0,46.1,4.3,46.1,4.3
			l-6.4,35.5c0,0-10.7-2.9-20.7-2.9c-10,0-18.9,3.3-18.9,12.7v27.1h41l-2.9,34.7H247v120.5h-48.2V228.6h-25.7V193.9z"/>
		<path class="st2" d="M173.6,194.4h25.7v-23.3c0-10.3,0.3-26.1,8.3-35.9c8.4-10.4,20-17.5,39.9-17.5c32.4,0,46.1,4.3,46.1,4.3
			l-6.4,35.5c0,0-10.7-2.9-20.7-2.9c-10,0-18.9,3.3-18.9,12.7v27.1h41l-2.9,34.7h-38.1v120.5h-48.2V229.1h-25.7V194.4z"/>
		<path class="st2" d="M174.1,194.9h25.7v-23.3c0-10.3,0.3-26.1,8.3-35.9c8.4-10.4,20-17.5,39.9-17.5c32.4,0,46.1,4.3,46.1,4.3
			l-6.4,35.5c0,0-10.7-2.9-20.7-2.9c-10,0-18.9,3.3-18.9,12.7v27.1h41l-2.9,34.7H248v120.5h-48.2V229.6h-25.7V194.9z"/>
		<path class="st2" d="M174.7,195.5h25.7v-23.3c0-10.3,0.3-26.1,8.3-35.9c8.4-10.4,20-17.5,39.9-17.5c32.4,0,46.1,4.3,46.1,4.3
			l-6.4,35.5c0,0-10.7-2.9-20.7-2.9c-10,0-18.9,3.3-18.9,12.7v27.1h41l-2.9,34.7h-38.1v120.5h-48.2V230.2h-25.7V195.5z"/>
		<path class="st2" d="M175.2,196h25.7v-23.3c0-10.3,0.3-26.1,8.3-35.9c8.4-10.4,20-17.5,39.9-17.5c32.4,0,46.1,4.3,46.1,4.3
			l-6.4,35.5c0,0-10.7-2.9-20.7-2.9c-10,0-18.9,3.3-18.9,12.7V196h41l-2.9,34.7H249v120.5h-48.2V230.7h-25.7V196z"/>
		<path class="st2" d="M175.7,196.5h25.7v-23.3c0-10.3,0.3-26.1,8.3-35.9c8.4-10.4,20-17.5,39.9-17.5c32.4,0,46.1,4.3,46.1,4.3
			l-6.4,35.5c0,0-10.7-2.9-20.7-2.9c-10,0-18.9,3.3-18.9,12.7v27.1h41l-2.9,34.7h-38.1v120.5h-48.2V231.2h-25.7V196.5z"/>
		<path class="st2" d="M176.2,197h25.7v-23.3c0-10.3,0.3-26.1,8.3-35.9c8.4-10.4,20-17.5,39.9-17.5c32.4,0,46.1,4.3,46.1,4.3
			l-6.4,35.5c0,0-10.7-2.9-20.7-2.9c-10,0-18.9,3.3-18.9,12.7V197h41l-2.9,34.7h-38.1v120.5h-48.2V231.7h-25.7V197z"/>
		<path class="st2" d="M176.7,197.5h25.7v-23.3c0-10.3,0.3-26.1,8.3-35.9c8.4-10.4,20-17.5,39.9-17.5c32.4,0,46.1,4.3,46.1,4.3
			l-6.4,35.5c0,0-10.7-2.9-20.7-2.9c-10,0-18.9,3.3-18.9,12.7v27.1h41l-2.9,34.7h-38.1v120.5h-48.2V232.2h-25.7V197.5z"/>
		<path class="st2" d="M177.2,198h25.7v-23.3c0-10.3,0.3-26.1,8.3-35.9c8.4-10.4,20-17.5,39.9-17.5c32.4,0,46.1,4.3,46.1,4.3
			l-6.4,35.5c0,0-10.7-2.9-20.7-2.9c-10,0-18.9,3.3-18.9,12.7V198h41l-2.9,34.7h-38.1v120.5h-48.2V232.7h-25.7V198z"/>
		<path class="st2" d="M177.7,198.5h25.7v-23.3c0-10.3,0.3-26.1,8.3-35.9c8.4-10.4,20-17.5,39.9-17.5c32.4,0,46.1,4.3,46.1,4.3
			l-6.4,35.5c0,0-10.7-2.9-20.7-2.9c-10,0-18.9,3.3-18.9,12.7v27.1h41l-2.9,34.7h-38.1v120.5h-48.2V233.2h-25.7V198.5z"/>
		<path class="st2" d="M178.2,199h25.7v-23.3c0-10.3,0.3-26.1,8.3-35.9c8.4-10.4,20-17.5,39.9-17.5c32.4,0,46.1,4.3,46.1,4.3
			l-6.4,35.5c0,0-10.7-2.9-20.7-2.9c-10,0-18.9,3.3-18.9,12.7V199h41l-2.9,34.7h-38.1v120.5h-48.2V233.7h-25.7V199z"/>
		<path class="st2" d="M178.7,199.5h25.7v-23.3c0-10.3,0.3-26.1,8.3-35.9c8.4-10.4,20-17.5,39.9-17.5c32.4,0,46.1,4.3,46.1,4.3
			l-6.4,35.5c0,0-10.7-2.9-20.7-2.9c-10,0-18.9,3.3-18.9,12.7v27.1h41l-2.9,34.7h-38.1v120.5h-48.2V234.2h-25.7V199.5z"/>
		<path class="st2" d="M179.3,200.1H205v-23.3c0-10.3,0.3-26.1,8.3-35.9c8.4-10.4,20-17.5,39.9-17.5c32.4,0,46.1,4.3,46.1,4.3
			l-6.4,35.5c0,0-10.7-2.9-20.7-2.9c-10,0-18.9,3.3-18.9,12.7v27.1h41l-2.9,34.7h-38.1v120.5H205V234.7h-25.7V200.1z"/>
		<path class="st2" d="M179.8,200.6h25.7v-23.3c0-10.3,0.3-26.1,8.3-35.9c8.4-10.4,20-17.5,39.9-17.5c32.4,0,46.1,4.3,46.1,4.3
			l-6.4,35.5c0,0-10.7-2.9-20.7-2.9c-10,0-18.9,3.3-18.9,12.7v27.1h41l-2.9,34.7h-38.1v120.5h-48.2V235.3h-25.7V200.6z"/>
		<path class="st2" d="M180.3,201.1H206v-23.3c0-10.3,0.3-26.1,8.3-35.9c8.4-10.4,20-17.5,39.9-17.5c32.4,0,46.1,4.3,46.1,4.3
			l-6.4,35.5c0,0-10.7-2.9-20.7-2.9c-10,0-18.9,3.3-18.9,12.7v27.1h41l-2.9,34.7h-38.1v120.5H206V235.8h-25.7V201.1z"/>
		<path class="st2" d="M180.8,201.6h25.7v-23.3c0-10.3,0.3-26.1,8.3-35.9c8.4-10.4,20-17.5,39.9-17.5c32.4,0,46.1,4.3,46.1,4.3
			l-6.4,35.5c0,0-10.7-2.9-20.7-2.9c-10,0-18.9,3.3-18.9,12.7v27.1h41l-2.9,34.7h-38.1v120.5h-48.2V236.3h-25.7V201.6z"/>
		<path class="st2" d="M181.3,202.1H207v-23.3c0-10.3,0.3-26.1,8.3-35.9c8.4-10.4,20-17.5,39.9-17.5c32.4,0,46.1,4.3,46.1,4.3
			l-6.4,35.5c0,0-10.7-2.9-20.7-2.9c-10,0-18.9,3.3-18.9,12.7v27.1h41l-2.9,34.7h-38.1v120.5H207V236.8h-25.7V202.1z"/>
		<path class="st2" d="M181.8,202.6h25.7v-23.3c0-10.3,0.3-26.1,8.3-35.9c8.4-10.4,20-17.5,39.9-17.5c32.4,0,46.1,4.3,46.1,4.3
			l-6.4,35.5c0,0-10.7-2.9-20.7-2.9c-10,0-18.9,3.3-18.9,12.7v27.1h41l-2.9,34.7h-38.1v120.5h-48.2V237.3h-25.7V202.6z"/>
		<path class="st2" d="M182.3,203.1H208v-23.3c0-10.3,0.3-26.1,8.3-35.9c8.4-10.4,20-17.5,39.9-17.5c32.4,0,46.1,4.3,46.1,4.3
			l-6.4,35.5c0,0-10.7-2.9-20.7-2.9c-10,0-18.9,3.3-18.9,12.7v27.1h41l-2.9,34.7h-38.1v120.5H208V237.8h-25.7V203.1z"/>
		<path class="st2" d="M182.8,203.6h25.7v-23.3c0-10.3,0.3-26.1,8.3-35.9c8.4-10.4,20-17.5,39.9-17.5c32.4,0,46.1,4.3,46.1,4.3
			l-6.4,35.5c0,0-10.7-2.9-20.7-2.9c-10,0-18.9,3.3-18.9,12.7v27.1h41l-2.9,34.7h-38.1v120.5h-48.2V238.3h-25.7V203.6z"/>
		<path class="st2" d="M183.3,204.1H209v-23.3c0-10.3,0.3-26.1,8.3-35.9c8.4-10.4,20-17.5,39.9-17.5c32.4,0,46.1,4.3,46.1,4.3
			l-6.4,35.5c0,0-10.7-2.9-20.7-2.9c-10,0-18.9,3.3-18.9,12.7v27.1h41l-2.9,34.7h-38.1v120.5H209V238.8h-25.7V204.1z"/>
		<path class="st2" d="M183.9,204.6h25.7v-23.3c0-10.3,0.3-26.1,8.3-35.9c8.4-10.4,20-17.5,39.9-17.5c32.4,0,46.1,4.3,46.1,4.3
			l-6.4,35.5c0,0-10.7-2.9-20.7-2.9c-10,0-18.9,3.3-18.9,12.7v27.1h41l-2.9,34.7h-38.1v120.5h-48.2V239.3h-25.7V204.6z"/>
		<path class="st2" d="M184.4,205.2h25.7v-23.3c0-10.3,0.3-26.1,8.3-35.9c8.4-10.4,20-17.5,39.9-17.5c32.4,0,46.1,4.3,46.1,4.3
			l-6.4,35.5c0,0-10.7-2.9-20.7-2.9c-10,0-18.9,3.3-18.9,12.7v27.1h41l-2.9,34.7h-38.1v120.5h-48.2V239.9h-25.7V205.2z"/>
		<path class="st2" d="M184.9,205.7h25.7v-23.3c0-10.3,0.3-26.1,8.3-35.9c8.4-10.4,20-17.5,39.9-17.5c32.4,0,46.1,4.3,46.1,4.3
			l-6.4,35.5c0,0-10.7-2.9-20.7-2.9c-10,0-18.9,3.3-18.9,12.7v27.1h41l-2.9,34.7h-38.1v120.5h-48.2V240.4h-25.7V205.7z"/>
		<path class="st2" d="M185.4,206.2h25.7v-23.3c0-10.3,0.3-26.1,8.3-35.9c8.4-10.4,20-17.5,39.9-17.5c32.4,0,46.1,4.3,46.1,4.3
			l-6.4,35.5c0,0-10.7-2.9-20.7-2.9c-10,0-18.9,3.3-18.9,12.7v27.1h41l-2.9,34.7h-38.1v120.5h-48.2V240.9h-25.7V206.2z"/>
		<path class="st2" d="M185.9,206.7h25.7v-23.3c0-10.3,0.3-26.1,8.3-35.9c8.4-10.4,20-17.5,39.9-17.5c32.4,0,46.1,4.3,46.1,4.3
			l-6.4,35.5c0,0-10.7-2.9-20.7-2.9c-10,0-18.9,3.3-18.9,12.7v27.1h41l-2.9,34.7h-38.1v120.5h-48.2V241.4h-25.7V206.7z"/>
		<path class="st2" d="M186.4,207.2h25.7v-23.3c0-10.3,0.3-26.1,8.3-35.9c8.4-10.4,20-17.5,39.9-17.5c32.4,0,46.1,4.3,46.1,4.3
			l-6.4,35.5c0,0-10.7-2.9-20.7-2.9c-10,0-18.9,3.3-18.9,12.7v27.1h41l-2.9,34.7h-38.1v120.5h-48.2V241.9h-25.7V207.2z"/>
		<path class="st2" d="M186.9,207.7h25.7v-23.3c0-10.3,0.3-26.1,8.3-35.9c8.4-10.4,20-17.5,39.9-17.5c32.4,0,46.1,4.3,46.1,4.3
			l-6.4,35.5c0,0-10.7-2.9-20.7-2.9c-10,0-18.9,3.3-18.9,12.7v27.1h41l-2.9,34.7h-38.1v120.5h-48.2V242.4h-25.7V207.7z"/>
		<path class="st2" d="M187.4,208.2h25.7v-23.3c0-10.3,0.3-26.1,8.3-35.9c8.4-10.4,20-17.5,39.9-17.5c32.4,0,46.1,4.3,46.1,4.3
			l-6.4,35.5c0,0-10.7-2.9-20.7-2.9c-10,0-18.9,3.3-18.9,12.7v27.1h41l-2.9,34.7h-38.1v120.5h-48.2V242.9h-25.7V208.2z"/>
		<path class="st2" d="M187.9,208.7h25.7v-23.3c0-10.3,0.3-26.1,8.3-35.9c8.4-10.4,20-17.5,39.9-17.5c32.4,0,46.1,4.3,46.1,4.3
			l-6.4,35.5c0,0-10.7-2.9-20.7-2.9c-10,0-18.9,3.3-18.9,12.7v27.1h41l-2.9,34.7h-38.1V364h-48.2V243.4h-25.7V208.7z"/>
		<path class="st2" d="M188.5,209.2h25.7v-23.3c0-10.3,0.3-26.1,8.3-35.9c8.4-10.4,20-17.5,39.9-17.5c32.4,0,46.1,4.3,46.1,4.3
			l-6.4,35.5c0,0-10.7-2.9-20.7-2.9c-10,0-18.9,3.3-18.9,12.7v27.1h41l-2.9,34.7h-38.1v120.5h-48.2V243.9h-25.7V209.2z"/>
		<path class="st2" d="M189,209.8h25.7v-23.3c0-10.3,0.3-26.1,8.3-35.9c8.4-10.4,20-17.5,39.9-17.5c32.4,0,46.1,4.3,46.1,4.3
			l-6.4,35.5c0,0-10.7-2.9-20.7-2.9c-10,0-18.9,3.3-18.9,12.7v27.1h41l-2.9,34.7h-38.1V365h-48.2V244.5H189V209.8z"/>
		<path class="st2" d="M189.5,210.3h25.7V187c0-10.3,0.3-26.1,8.3-35.9c8.4-10.4,20-17.5,39.9-17.5c32.4,0,46.1,4.3,46.1,4.3
			l-6.4,35.5c0,0-10.7-2.9-20.7-2.9c-10,0-18.9,3.3-18.9,12.7v27.1h41l-2.9,34.7h-38.1v120.5h-48.2V245h-25.7V210.3z"/>
		<path class="st2" d="M190,210.8h25.7v-23.3c0-10.3,0.3-26.1,8.3-35.9c8.4-10.4,20-17.5,39.9-17.5c32.4,0,46.1,4.3,46.1,4.3
			l-6.4,35.5c0,0-10.7-2.9-20.7-2.9c-10,0-18.9,3.3-18.9,12.7v27.1h41l-2.9,34.7h-38.1V366h-48.2V245.5H190V210.8z"/>
		<path class="st2" d="M190.5,211.3h25.7V188c0-10.3,0.3-26.1,8.3-35.9c8.4-10.4,20-17.5,39.9-17.5c32.4,0,46.1,4.3,46.1,4.3
			l-6.4,35.5c0,0-10.7-2.9-20.7-2.9c-10,0-18.9,3.3-18.9,12.7v27.1h41l-2.9,34.7h-38.1v120.5h-48.2V246h-25.7V211.3z"/>
		<path class="st2" d="M191,211.8h25.7v-23.3c0-10.3,0.3-26.1,8.3-35.9c8.4-10.4,20-17.5,39.9-17.5c32.4,0,46.1,4.3,46.1,4.3
			l-6.4,35.5c0,0-10.7-2.9-20.7-2.9c-10,0-18.9,3.3-18.9,12.7v27.1h41l-2.9,34.7h-38.1V367h-48.2V246.5H191V211.8z"/>
		<path class="st2" d="M191.5,212.3h25.7V189c0-10.3,0.3-26.1,8.3-35.9c8.4-10.4,20-17.5,39.9-17.5c32.4,0,46.1,4.3,46.1,4.3
			l-6.4,35.5c0,0-10.7-2.9-20.7-2.9c-10,0-18.9,3.3-18.9,12.7v27.1h41l-2.9,34.7h-38.1v120.5h-48.2V247h-25.7V212.3z"/>
		<path class="st2" d="M192,212.8h25.7v-23.3c0-10.3,0.3-26.1,8.3-35.9c8.4-10.4,20-17.5,39.9-17.5c32.4,0,46.1,4.3,46.1,4.3
			l-6.4,35.5c0,0-10.7-2.9-20.7-2.9c-10,0-18.9,3.3-18.9,12.7v27.1h41l-2.9,34.7h-38.1v120.5h-48.2V247.5H192V212.8z"/>
		<path class="st2" d="M192.5,213.3h25.7V190c0-10.3,0.3-26.1,8.3-35.9c8.4-10.4,20-17.5,39.9-17.5c32.4,0,46.1,4.3,46.1,4.3
			l-6.4,35.5c0,0-10.7-2.9-20.7-2.9c-10,0-18.9,3.3-18.9,12.7v27.1h41l-2.9,34.7h-38.1v120.5h-48.2V248h-25.7V213.3z"/>
		<path class="st2" d="M193,213.8h25.7v-23.3c0-10.3,0.3-26.1,8.3-35.9c8.4-10.4,20-17.5,39.9-17.5c32.4,0,46.1,4.3,46.1,4.3
			l-6.4,35.5c0,0-10.7-2.9-20.7-2.9c-10,0-18.9,3.3-18.9,12.7v27.1h41l-2.9,34.7h-38.1v120.5h-48.2V248.5H193V213.8z"/>
		<path class="st2" d="M193.6,214.4h25.7v-23.3c0-10.3,0.3-26.1,8.3-35.9c8.4-10.4,20-17.5,39.9-17.5c32.4,0,46.1,4.3,46.1,4.3
			l-6.4,35.5c0,0-10.7-2.9-20.7-2.9c-10,0-18.9,3.3-18.9,12.7v27.1h41l-2.9,34.7h-38.1v120.5h-48.2V249.1h-25.7V214.4z"/>
		<path class="st2" d="M194.1,214.9h25.7v-23.3c0-10.3,0.3-26.1,8.3-35.9c8.4-10.4,20-17.5,39.9-17.5c32.4,0,46.1,4.3,46.1,4.3
			l-6.4,35.5c0,0-10.7-2.9-20.7-2.9c-10,0-18.9,3.3-18.9,12.7v27.1h41l-2.9,34.7h-38.1v120.5h-48.2V249.6h-25.7V214.9z"/>
		<path class="st2" d="M194.6,215.4h25.7v-23.3c0-10.3,0.3-26.1,8.3-35.9c8.4-10.4,20-17.5,39.9-17.5c32.4,0,46.1,4.3,46.1,4.3
			l-6.4,35.5c0,0-10.7-2.9-20.7-2.9c-10,0-18.9,3.3-18.9,12.7v27.1h41l-2.9,34.7h-38.1v120.5h-48.2V250.1h-25.7V215.4z"/>
		<path class="st2" d="M195.1,215.9h25.7v-23.3c0-10.3,0.3-26.1,8.3-35.9c8.4-10.4,20-17.5,39.9-17.5c32.4,0,46.1,4.3,46.1,4.3
			l-6.4,35.5c0,0-10.7-2.9-20.7-2.9c-10,0-18.9,3.3-18.9,12.7v27.1h41l-2.9,34.7H269v120.5h-48.2V250.6h-25.7V215.9z"/>
		<path class="st2" d="M195.6,216.4h25.7v-23.3c0-10.3,0.3-26.1,8.3-35.9c8.4-10.4,20-17.5,39.9-17.5c32.4,0,46.1,4.3,46.1,4.3
			l-6.4,35.5c0,0-10.7-2.9-20.7-2.9c-10,0-18.9,3.3-18.9,12.7v27.1h41l-2.9,34.7h-38.1v120.5h-48.2V251.1h-25.7V216.4z"/>
		<path class="st2" d="M196.1,216.9h25.7v-23.3c0-10.3,0.3-26.1,8.3-35.9c8.4-10.4,20-17.5,39.9-17.5c32.4,0,46.1,4.3,46.1,4.3
			l-6.4,35.5c0,0-10.7-2.9-20.7-2.9c-10,0-18.9,3.3-18.9,12.7v27.1h41l-2.9,34.7H270v120.5h-48.2V251.6h-25.7V216.9z"/>
		<path class="st2" d="M196.6,217.4h25.7v-23.3c0-10.3,0.3-26.1,8.3-35.9c8.4-10.4,20-17.5,39.9-17.5c32.4,0,46.1,4.3,46.1,4.3
			l-6.4,35.5c0,0-10.7-2.9-20.7-2.9c-10,0-18.9,3.3-18.9,12.7v27.1h41l-2.9,34.7h-38.1v120.5h-48.2V252.1h-25.7V217.4z"/>
		<path class="st2" d="M197.1,217.9h25.7v-23.3c0-10.3,0.3-26.1,8.3-35.9c8.4-10.4,20-17.5,39.9-17.5c32.4,0,46.1,4.3,46.1,4.3
			l-6.4,35.5c0,0-10.7-2.9-20.7-2.9c-10,0-18.9,3.3-18.9,12.7v27.1h41l-2.9,34.7H271v120.5h-48.2V252.6h-25.7V217.9z"/>
		<path class="st2" d="M197.6,218.4h25.7v-23.3c0-10.3,0.3-26.1,8.3-35.9c8.4-10.4,20-17.5,39.9-17.5c32.4,0,46.1,4.3,46.1,4.3
			l-6.4,35.5c0,0-10.7-2.9-20.7-2.9c-10,0-18.9,3.3-18.9,12.7v27.1h41l-2.9,34.7h-38.1v120.5h-48.2V253.1h-25.7V218.4z"/>
		<path class="st2" d="M198.2,219h25.7v-23.3c0-10.3,0.3-26.1,8.3-35.9c8.4-10.4,20-17.5,39.9-17.5c32.4,0,46.1,4.3,46.1,4.3
			l-6.4,35.5c0,0-10.7-2.9-20.7-2.9c-10,0-18.9,3.3-18.9,12.7V219h41l-2.9,34.7H272v120.5h-48.2V253.7h-25.7V219z"/>
		<path class="st2" d="M198.7,219.5h25.7v-23.3c0-10.3,0.3-26.1,8.3-35.9c8.4-10.4,20-17.5,39.9-17.5c32.4,0,46.1,4.3,46.1,4.3
			l-6.4,35.5c0,0-10.7-2.9-20.7-2.9c-10,0-18.9,3.3-18.9,12.7v27.1h41l-2.9,34.7h-38.1v120.5h-48.2V254.2h-25.7V219.5z"/>
		<path class="st2" d="M199.2,220h25.7v-23.3c0-10.3,0.3-26.1,8.3-35.9c8.4-10.4,20-17.5,39.9-17.5c32.4,0,46.1,4.3,46.1,4.3
			l-6.4,35.5c0,0-10.7-2.9-20.7-2.9c-10,0-18.9,3.3-18.9,12.7V220h41l-2.9,34.7h-38.1v120.5h-48.2V254.7h-25.7V220z"/>
		<path class="st2" d="M199.7,220.5h25.7v-23.3c0-10.3,0.3-26.1,8.3-35.9c8.4-10.4,20-17.5,39.9-17.5c32.4,0,46.1,4.3,46.1,4.3
			l-6.4,35.5c0,0-10.7-2.9-20.7-2.9c-10,0-18.9,3.3-18.9,12.7v27.1h41l-2.9,34.7h-38.1v120.5h-48.2V255.2h-25.7V220.5z"/>
		<path class="st2" d="M200.2,221h25.7v-23.3c0-10.3,0.3-26.1,8.3-35.9c8.4-10.4,20-17.5,39.9-17.5c32.4,0,46.1,4.3,46.1,4.3
			l-6.4,35.5c0,0-10.7-2.9-20.7-2.9c-10,0-18.9,3.3-18.9,12.7V221h41l-2.9,34.7h-38.1v120.5h-48.2V255.7h-25.7V221z"/>
		<path class="st2" d="M200.7,221.5h25.7v-23.3c0-10.3,0.3-26.1,8.3-35.9c8.4-10.4,20-17.5,39.9-17.5c32.4,0,46.1,4.3,46.1,4.3
			l-6.4,35.5c0,0-10.7-2.9-20.7-2.9c-10,0-18.9,3.3-18.9,12.7v27.1h41l-2.9,34.7h-38.1v120.5h-48.2V256.2h-25.7V221.5z"/>
		<path class="st2" d="M201.2,222h25.7v-23.3c0-10.3,0.3-26.1,8.3-35.9c8.4-10.4,20-17.5,39.9-17.5c32.4,0,46.1,4.3,46.1,4.3
			l-6.4,35.5c0,0-10.7-2.9-20.7-2.9c-10,0-18.9,3.3-18.9,12.7V222h41l-2.9,34.7h-38.1v120.5h-48.2V256.7h-25.7V222z"/>
		<path class="st2" d="M201.7,222.5h25.7v-23.3c0-10.3,0.3-26.1,8.3-35.9c8.4-10.4,20-17.5,39.9-17.5c32.4,0,46.1,4.3,46.1,4.3
			l-6.4,35.5c0,0-10.7-2.9-20.7-2.9c-10,0-18.9,3.3-18.9,12.7v27.1h41l-2.9,34.7h-38.1v120.5h-48.2V257.2h-25.7V222.5z"/>
		<path class="st2" d="M202.2,223h25.7v-23.3c0-10.3,0.3-26.1,8.3-35.9c8.4-10.4,20-17.5,39.9-17.5c32.4,0,46.1,4.3,46.1,4.3
			l-6.4,35.5c0,0-10.7-2.9-20.7-2.9c-10,0-18.9,3.3-18.9,12.7V223h41l-2.9,34.7h-38.1v120.5h-48.2V257.7h-25.7V223z"/>
		<path class="st2" d="M202.8,223.6h25.7v-23.3c0-10.3,0.3-26.1,8.3-35.9c8.4-10.4,20-17.5,39.9-17.5c32.4,0,46.1,4.3,46.1,4.3
			l-6.4,35.5c0,0-10.7-2.9-20.7-2.9c-10,0-18.9,3.3-18.9,12.7v27.1h41l-2.9,34.7h-38.1v120.5h-48.2V258.2h-25.7V223.6z"/>
		<path class="st2" d="M203.3,224.1H229v-23.3c0-10.3,0.3-26.1,8.3-35.9c8.4-10.4,20-17.5,39.9-17.5c32.4,0,46.1,4.3,46.1,4.3
			l-6.4,35.5c0,0-10.7-2.9-20.7-2.9c-10,0-18.9,3.3-18.9,12.7v27.1h41l-2.9,34.7h-38.1v120.5H229V258.8h-25.7V224.1z"/>
		<path class="st2" d="M203.8,224.6h25.7v-23.3c0-10.3,0.3-26.1,8.3-35.9c8.4-10.4,20-17.5,39.9-17.5c32.4,0,46.1,4.3,46.1,4.3
			l-6.4,35.5c0,0-10.7-2.9-20.7-2.9c-10,0-18.9,3.3-18.9,12.7v27.1h41l-2.9,34.7h-38.1v120.5h-48.2V259.3h-25.7V224.6z"/>
		<path class="st2" d="M204.3,225.1H230v-23.3c0-10.3,0.3-26.1,8.3-35.9c8.4-10.4,20-17.5,39.9-17.5c32.4,0,46.1,4.3,46.1,4.3
			l-6.4,35.5c0,0-10.7-2.9-20.7-2.9c-10,0-18.9,3.3-18.9,12.7v27.1h41l-2.9,34.7h-38.1v120.5H230V259.8h-25.7V225.1z"/>
		<path class="st2" d="M204.8,225.6h25.7v-23.3c0-10.3,0.3-26.1,8.3-35.9c8.4-10.4,20-17.5,39.9-17.5c32.4,0,46.1,4.3,46.1,4.3
			l-6.4,35.5c0,0-10.7-2.9-20.7-2.9c-10,0-18.9,3.3-18.9,12.7v27.1h41l-2.9,34.7h-38.1v120.5h-48.2V260.3h-25.7V225.6z"/>
		<path class="st2" d="M205.3,226.1H231v-23.3c0-10.3,0.3-26.1,8.3-35.9c8.4-10.4,20-17.5,39.9-17.5c32.4,0,46.1,4.3,46.1,4.3
			l-6.4,35.5c0,0-10.7-2.9-20.7-2.9c-10,0-18.9,3.3-18.9,12.7v27.1h41l-2.9,34.7h-38.1v120.5H231V260.8h-25.7V226.1z"/>
		<path class="st2" d="M205.8,226.6h25.7v-23.3c0-10.3,0.3-26.1,8.3-35.9c8.4-10.4,20-17.5,39.9-17.5c32.4,0,46.1,4.3,46.1,4.3
			l-6.4,35.5c0,0-10.7-2.9-20.7-2.9c-10,0-18.9,3.3-18.9,12.7v27.1h41l-2.9,34.7h-38.1v120.5h-48.2V261.3h-25.7V226.6z"/>
		<path class="st2" d="M206.3,227.1H232v-23.3c0-10.3,0.3-26.1,8.3-35.9c8.4-10.4,20-17.5,39.9-17.5c32.4,0,46.1,4.3,46.1,4.3
			l-6.4,35.5c0,0-10.7-2.9-20.7-2.9c-10,0-18.9,3.3-18.9,12.7v27.1h41l-2.9,34.7h-38.1v120.5H232V261.8h-25.7V227.1z"/>
		<path class="st2" d="M206.8,227.6h25.7v-23.3c0-10.3,0.3-26.1,8.3-35.9c8.4-10.4,20-17.5,39.9-17.5c32.4,0,46.1,4.3,46.1,4.3
			l-6.4,35.5c0,0-10.7-2.9-20.7-2.9c-10,0-18.9,3.3-18.9,12.7v27.1h41l-2.9,34.7h-38.1v120.5h-48.2V262.3h-25.7V227.6z"/>
		<path class="st2" d="M207.4,228.1h25.7v-23.3c0-10.3,0.3-26.1,8.3-35.9c8.4-10.4,20-17.5,39.9-17.5c32.4,0,46.1,4.3,46.1,4.3
			l-6.4,35.5c0,0-10.7-2.9-20.7-2.9c-10,0-18.9,3.3-18.9,12.7v27.1h41l-2.9,34.7h-38.1v120.5h-48.2V262.8h-25.7V228.1z"/>
		<path class="st2" d="M207.9,228.7h25.7v-23.3c0-10.3,0.3-26.1,8.3-35.9c8.4-10.4,20-17.5,39.9-17.5c32.4,0,46.1,4.3,46.1,4.3
			l-6.4,35.5c0,0-10.7-2.9-20.7-2.9c-10,0-18.9,3.3-18.9,12.7v27.1h41l-2.9,34.7h-38.1v120.5h-48.2V263.4h-25.7V228.7z"/>
		<path class="st2" d="M208.4,229.2h25.7v-23.3c0-10.3,0.3-26.1,8.3-35.9c8.4-10.4,20-17.5,39.9-17.5c32.4,0,46.1,4.3,46.1,4.3
			l-6.4,35.5c0,0-10.7-2.9-20.7-2.9c-10,0-18.9,3.3-18.9,12.7v27.1h41l-2.9,34.7h-38.1v120.5h-48.2V263.9h-25.7V229.2z"/>
		<path class="st2" d="M208.9,229.7h25.7v-23.3c0-10.3,0.3-26.1,8.3-35.9c8.4-10.4,20-17.5,39.9-17.5c32.4,0,46.1,4.3,46.1,4.3
			l-6.4,35.5c0,0-10.7-2.9-20.7-2.9c-10,0-18.9,3.3-18.9,12.7v27.1h41l-2.9,34.7h-38.1v120.5h-48.2V264.4h-25.7V229.7z"/>
		<path class="st2" d="M209.4,230.2h25.7v-23.3c0-10.3,0.3-26.1,8.3-35.9c8.4-10.4,20-17.5,39.9-17.5c32.4,0,46.1,4.3,46.1,4.3
			l-6.4,35.5c0,0-10.7-2.9-20.7-2.9c-10,0-18.9,3.3-18.9,12.7v27.1h41l-2.9,34.7h-38.1v120.5h-48.2V264.9h-25.7V230.2z"/>
		<path class="st2" d="M209.9,230.7h25.7v-23.3c0-10.3,0.3-26.1,8.3-35.9c8.4-10.4,20-17.5,39.9-17.5c32.4,0,46.1,4.3,46.1,4.3
			l-6.4,35.5c0,0-10.7-2.9-20.7-2.9c-10,0-18.9,3.3-18.9,12.7v27.1h41l-2.9,34.7h-38.1v120.5h-48.2V265.4h-25.7V230.7z"/>
		<path class="st2" d="M210.4,231.2h25.7v-23.3c0-10.3,0.3-26.1,8.3-35.9c8.4-10.4,20-17.5,39.9-17.5c32.4,0,46.1,4.3,46.1,4.3
			l-6.4,35.5c0,0-10.7-2.9-20.7-2.9c-10,0-18.9,3.3-18.9,12.7v27.1h41l-2.9,34.7h-38.1v120.5h-48.2V265.9h-25.7V231.2z"/>
		<path class="st2" d="M210.9,231.7h25.7v-23.3c0-10.3,0.3-26.1,8.3-35.9c8.4-10.4,20-17.5,39.9-17.5c32.4,0,46.1,4.3,46.1,4.3
			l-6.4,35.5c0,0-10.7-2.9-20.7-2.9c-10,0-18.9,3.3-18.9,12.7v27.1h41l-2.9,34.7h-38.1V387h-48.2V266.4h-25.7V231.7z"/>
		<path class="st2" d="M211.4,232.2h25.7v-23.3c0-10.3,0.3-26.1,8.3-35.9c8.4-10.4,20-17.5,39.9-17.5c32.4,0,46.1,4.3,46.1,4.3
			l-6.4,35.5c0,0-10.7-2.9-20.7-2.9c-10,0-18.9,3.3-18.9,12.7v27.1h41l-2.9,34.7h-38.1v120.5h-48.2V266.9h-25.7V232.2z"/>
		<path class="st2" d="M212,232.7h25.7v-23.3c0-10.3,0.3-26.1,8.3-35.9c8.4-10.4,20-17.5,39.9-17.5c32.4,0,46.1,4.3,46.1,4.3
			l-6.4,35.5c0,0-10.7-2.9-20.7-2.9c-10,0-18.9,3.3-18.9,12.7v27.1h41l-2.9,34.7h-38.1V388h-48.2V267.4H212V232.7z"/>
		<path class="st2" d="M212.5,233.3h25.7V210c0-10.3,0.3-26.1,8.3-35.9c8.4-10.4,20-17.5,39.9-17.5c32.4,0,46.1,4.3,46.1,4.3
			l-6.4,35.5c0,0-10.7-2.9-20.7-2.9c-10,0-18.9,3.3-18.9,12.7v27.1h41l-2.9,34.7h-38.1v120.5h-48.2V268h-25.7V233.3z"/>
		<path class="st2" d="M213,233.8h25.7v-23.3c0-10.3,0.3-26.1,8.3-35.9c8.4-10.4,20-17.5,39.9-17.5c32.4,0,46.1,4.3,46.1,4.3
			l-6.4,35.5c0,0-10.7-2.9-20.7-2.9c-10,0-18.9,3.3-18.9,12.7v27.1h41l-2.9,34.7h-38.1V389h-48.2V268.5H213V233.8z"/>
		<path class="st2" d="M213.5,234.3h25.7V211c0-10.3,0.3-26.1,8.3-35.9c8.4-10.4,20-17.5,39.9-17.5c32.4,0,46.1,4.3,46.1,4.3
			l-6.4,35.5c0,0-10.7-2.9-20.7-2.9c-10,0-18.9,3.3-18.9,12.7v27.1h41l-2.9,34.7h-38.1v120.5h-48.2V269h-25.7V234.3z"/>
		<path class="st2" d="M214,234.8h25.7v-23.3c0-10.3,0.3-26.1,8.3-35.9c8.4-10.4,20-17.5,39.9-17.5c32.4,0,46.1,4.3,46.1,4.3
			l-6.4,35.5c0,0-10.7-2.9-20.7-2.9c-10,0-18.9,3.3-18.9,12.7v27.1h41l-2.9,34.7h-38.1V390h-48.2V269.5H214V234.8z"/>
		<path class="st2" d="M214.5,235.3h25.7V212c0-10.3,0.3-26.1,8.3-35.9c8.4-10.4,20-17.5,39.9-17.5c32.4,0,46.1,4.3,46.1,4.3
			l-6.4,35.5c0,0-10.7-2.9-20.7-2.9c-10,0-18.9,3.3-18.9,12.7v27.1h41l-2.9,34.7h-38.1v120.5h-48.2V270h-25.7V235.3z"/>
		<path class="st2" d="M215,235.8h25.7v-23.3c0-10.3,0.3-26.1,8.3-35.9c8.4-10.4,20-17.5,39.9-17.5c32.4,0,46.1,4.3,46.1,4.3
			l-6.4,35.5c0,0-10.7-2.9-20.7-2.9c-10,0-18.9,3.3-18.9,12.7v27.1h41l-2.9,34.7h-38.1V391h-48.2V270.5H215V235.8z"/>
		<path class="st2" d="M215.5,236.3h25.7V213c0-10.3,0.3-26.1,8.3-35.9c8.4-10.4,20-17.5,39.9-17.5c32.4,0,46.1,4.3,46.1,4.3
			l-6.4,35.5c0,0-10.7-2.9-20.7-2.9c-10,0-18.9,3.3-18.9,12.7v27.1h41l-2.9,34.7h-38.1v120.5h-48.2V271h-25.7V236.3z"/>
		<path class="st2" d="M216,236.8h25.7v-23.3c0-10.3,0.3-26.1,8.3-35.9c8.4-10.4,20-17.5,39.9-17.5c32.4,0,46.1,4.3,46.1,4.3
			l-6.4,35.5c0,0-10.7-2.9-20.7-2.9c-10,0-18.9,3.3-18.9,12.7v27.1h41l-2.9,34.7h-38.1v120.5h-48.2V271.5H216V236.8z"/>
		<path class="st2" d="M216.6,237.3h25.7V214c0-10.3,0.3-26.1,8.3-35.9c8.4-10.4,20-17.5,39.9-17.5c32.4,0,46.1,4.3,46.1,4.3
			l-6.4,35.5c0,0-10.7-2.9-20.7-2.9c-10,0-18.9,3.3-18.9,12.7v27.1h41l-2.9,34.7h-38.1v120.5h-48.2V272h-25.7V237.3z"/>
		<path class="st2" d="M217.1,237.9h25.7v-23.3c0-10.3,0.3-26.1,8.3-35.9c8.4-10.4,20-17.5,39.9-17.5c32.4,0,46.1,4.3,46.1,4.3
			l-6.4,35.5c0,0-10.7-2.9-20.7-2.9c-10,0-18.9,3.3-18.9,12.7v27.1h41l-2.9,34.7h-38.1v120.5h-48.2V272.6h-25.7V237.9z"/>
		<path class="st2" d="M217.6,238.4h25.7v-23.3c0-10.3,0.3-26.1,8.3-35.9c8.4-10.4,20-17.5,39.9-17.5c32.4,0,46.1,4.3,46.1,4.3
			l-6.4,35.5c0,0-10.7-2.9-20.7-2.9c-10,0-18.9,3.3-18.9,12.7v27.1h41l-2.9,34.7h-38.1v120.5h-48.2V273.1h-25.7V238.4z"/>
		<path class="st2" d="M218.1,238.9h25.7v-23.3c0-10.3,0.3-26.1,8.3-35.9c8.4-10.4,20-17.5,39.9-17.5c32.4,0,46.1,4.3,46.1,4.3
			l-6.4,35.5c0,0-10.7-2.9-20.7-2.9c-10,0-18.9,3.3-18.9,12.7v27.1h41l-2.9,34.7H292v120.5h-48.2V273.6h-25.7V238.9z"/>
		<path class="st2" d="M218.6,239.4h25.7v-23.3c0-10.3,0.3-26.1,8.3-35.9c8.4-10.4,20-17.5,39.9-17.5c32.4,0,46.1,4.3,46.1,4.3
			l-6.4,35.5c0,0-10.7-2.9-20.7-2.9c-10,0-18.9,3.3-18.9,12.7v27.1h41l-2.9,34.7h-38.1v120.5h-48.2V274.1h-25.7V239.4z"/>
		<path class="st2" d="M219.1,239.9h25.7v-23.3c0-10.3,0.3-26.1,8.3-35.9c8.4-10.4,20-17.5,39.9-17.5c32.4,0,46.1,4.3,46.1,4.3
			l-6.4,35.5c0,0-10.7-2.9-20.7-2.9c-10,0-18.9,3.3-18.9,12.7v27.1h41l-2.9,34.7H293v120.5h-48.2V274.6h-25.7V239.9z"/>
		<path class="st2" d="M219.6,240.4h25.7v-23.3c0-10.3,0.3-26.1,8.3-35.9c8.4-10.4,20-17.5,39.9-17.5c32.4,0,46.1,4.3,46.1,4.3
			l-6.4,35.5c0,0-10.7-2.9-20.7-2.9c-10,0-18.9,3.3-18.9,12.7v27.1h41l-2.9,34.7h-38.1v120.5h-48.2V275.1h-25.7V240.4z"/>
		<path class="st2" d="M220.1,240.9h25.7v-23.3c0-10.3,0.3-26.1,8.3-35.9c8.4-10.4,20-17.5,39.9-17.5c32.4,0,46.1,4.3,46.1,4.3
			l-6.4,35.5c0,0-10.7-2.9-20.7-2.9c-10,0-18.9,3.3-18.9,12.7v27.1h41l-2.9,34.7H294v120.5h-48.2V275.6h-25.7V240.9z"/>
		<path class="st2" d="M220.6,241.4h25.7v-23.3c0-10.3,0.3-26.1,8.3-35.9c8.4-10.4,20-17.5,39.9-17.5c32.4,0,46.1,4.3,46.1,4.3
			l-6.4,35.5c0,0-10.7-2.9-20.7-2.9c-10,0-18.9,3.3-18.9,12.7v27.1h41l-2.9,34.7h-38.1v120.5h-48.2V276.1h-25.7V241.4z"/>
		<path class="st2" d="M221.1,241.9h25.7v-23.3c0-10.3,0.3-26.1,8.3-35.9c8.4-10.4,20-17.5,39.9-17.5c32.4,0,46.1,4.3,46.1,4.3
			l-6.4,35.5c0,0-10.7-2.9-20.7-2.9c-10,0-18.9,3.3-18.9,12.7v27.1h41l-2.9,34.7H295v120.5h-48.2V276.6h-25.7V241.9z"/>
		<path class="st2" d="M221.7,242.5h25.7v-23.3c0-10.3,0.3-26.1,8.3-35.9c8.4-10.4,20-17.5,39.9-17.5c32.4,0,46.1,4.3,46.1,4.3
			l-6.4,35.5c0,0-10.7-2.9-20.7-2.9c-10,0-18.9,3.3-18.9,12.7v27.1h41l-2.9,34.7h-38.1v120.5h-48.2V277.2h-25.7V242.5z"/>
		<path class="st2" d="M222.2,243h25.7v-23.3c0-10.3,0.3-26.1,8.3-35.9c8.4-10.4,20-17.5,39.9-17.5c32.4,0,46.1,4.3,46.1,4.3
			l-6.4,35.5c0,0-10.7-2.9-20.7-2.9c-10,0-18.9,3.3-18.9,12.7V243h41l-2.9,34.7H296v120.5h-48.2V277.7h-25.7V243z"/>
		<path class="st2" d="M222.7,243.5h25.7v-23.3c0-10.3,0.3-26.1,8.3-35.9c8.4-10.4,20-17.5,39.9-17.5c32.4,0,46.1,4.3,46.1,4.3
			l-6.4,35.5c0,0-10.7-2.9-20.7-2.9c-10,0-18.9,3.3-18.9,12.7v27.1h41l-2.9,34.7h-38.1v120.5h-48.2V278.2h-25.7V243.5z"/>
		<path class="st2" d="M223.2,244h25.7v-23.3c0-10.3,0.3-26.1,8.3-35.9c8.4-10.4,20-17.5,39.9-17.5c32.4,0,46.1,4.3,46.1,4.3
			l-6.4,35.5c0,0-10.7-2.9-20.7-2.9c-10,0-18.9,3.3-18.9,12.7V244h41l-2.9,34.7h-38.1v120.5h-48.2V278.7h-25.7V244z"/>
		<path class="st2" d="M223.7,244.5h25.7v-23.3c0-10.3,0.3-26.1,8.3-35.9c8.4-10.4,20-17.5,39.9-17.5c32.4,0,46.1,4.3,46.1,4.3
			l-6.4,35.5c0,0-10.7-2.9-20.7-2.9c-10,0-18.9,3.3-18.9,12.7v27.1h41l-2.9,34.7h-38.1v120.5h-48.2V279.2h-25.7V244.5z"/>
		<path class="st2" d="M224.2,245h25.7v-23.3c0-10.3,0.3-26.1,8.3-35.9c8.4-10.4,20-17.5,39.9-17.5c32.4,0,46.1,4.3,46.1,4.3
			l-6.4,35.5c0,0-10.7-2.9-20.7-2.9c-10,0-18.9,3.3-18.9,12.7V245h41l-2.9,34.7h-38.1v120.5h-48.2V279.7h-25.7V245z"/>
		<path class="st2" d="M224.7,245.5h25.7v-23.3c0-10.3,0.3-26.1,8.3-35.9c8.4-10.4,20-17.5,39.9-17.5c32.4,0,46.1,4.3,46.1,4.3
			l-6.4,35.5c0,0-10.7-2.9-20.7-2.9c-10,0-18.9,3.3-18.9,12.7v27.1h41l-2.9,34.7h-38.1v120.5h-48.2V280.2h-25.7V245.5z"/>
		<path class="st2" d="M225.2,246h25.7v-23.3c0-10.3,0.3-26.1,8.3-35.9c8.4-10.4,20-17.5,39.9-17.5c32.4,0,46.1,4.3,46.1,4.3
			l-6.4,35.5c0,0-10.7-2.9-20.7-2.9c-10,0-18.9,3.3-18.9,12.7V246h41l-2.9,34.7h-38.1v120.5h-48.2V280.7h-25.7V246z"/>
		<path class="st2" d="M225.7,246.5h25.7v-23.3c0-10.3,0.3-26.1,8.3-35.9c8.4-10.4,20-17.5,39.9-17.5c32.4,0,46.1,4.3,46.1,4.3
			l-6.4,35.5c0,0-10.7-2.9-20.7-2.9c-10,0-18.9,3.3-18.9,12.7v27.1h41l-2.9,34.7h-38.1v120.5h-48.2V281.2h-25.7V246.5z"/>
		<path class="st2" d="M226.3,247.1H252v-23.3c0-10.3,0.3-26.1,8.3-35.9c8.4-10.4,20-17.5,39.9-17.5c32.4,0,46.1,4.3,46.1,4.3
			l-6.4,35.5c0,0-10.7-2.9-20.7-2.9c-10,0-18.9,3.3-18.9,12.7v27.1h41l-2.9,34.7h-38.1v120.5H252V281.8h-25.7V247.1z"/>
		<path class="st2" d="M226.8,247.6h25.7v-23.3c0-10.3,0.3-26.1,8.3-35.9c8.4-10.4,20-17.5,39.9-17.5c32.4,0,46.1,4.3,46.1,4.3
			l-6.4,35.5c0,0-10.7-2.9-20.7-2.9c-10,0-18.9,3.3-18.9,12.7v27.1h41l-2.9,34.7h-38.1v120.5h-48.2V282.3h-25.7V247.6z"/>
		<path class="st2" d="M227.3,248.1H253v-23.3c0-10.3,0.3-26.1,8.3-35.9c8.4-10.4,20-17.5,39.9-17.5c32.4,0,46.1,4.3,46.1,4.3
			l-6.4,35.5c0,0-10.7-2.9-20.7-2.9c-10,0-18.9,3.3-18.9,12.7v27.1h41l-2.9,34.7h-38.1v120.5H253V282.8h-25.7V248.1z"/>
		<path class="st2" d="M227.8,248.6h25.7v-23.3c0-10.3,0.3-26.1,8.3-35.9c8.4-10.4,20-17.5,39.9-17.5c32.4,0,46.1,4.3,46.1,4.3
			l-6.4,35.5c0,0-10.7-2.9-20.7-2.9c-10,0-18.9,3.3-18.9,12.7v27.1h41l-2.9,34.7h-38.1v120.5h-48.2V283.3h-25.7V248.6z"/>
		<path class="st2" d="M228.3,249.1H254v-23.3c0-10.3,0.3-26.1,8.3-35.9c8.4-10.4,20-17.5,39.9-17.5c32.4,0,46.1,4.3,46.1,4.3
			l-6.4,35.5c0,0-10.7-2.9-20.7-2.9c-10,0-18.9,3.3-18.9,12.7v27.1h41l-2.9,34.7h-38.1v120.5H254V283.8h-25.7V249.1z"/>
		<path class="st2" d="M228.8,249.6h25.7v-23.3c0-10.3,0.3-26.1,8.3-35.9c8.4-10.4,20-17.5,39.9-17.5c32.4,0,46.1,4.3,46.1,4.3
			l-6.4,35.5c0,0-10.7-2.9-20.7-2.9c-10,0-18.9,3.3-18.9,12.7v27.1h41l-2.9,34.7h-38.1v120.5h-48.2V284.3h-25.7V249.6z"/>
		<path class="st2" d="M229.3,250.1H255v-23.3c0-10.3,0.3-26.1,8.3-35.9c8.4-10.4,20-17.5,39.9-17.5c32.4,0,46.1,4.3,46.1,4.3
			l-6.4,35.5c0,0-10.7-2.9-20.7-2.9c-10,0-18.9,3.3-18.9,12.7v27.1h41l-2.9,34.7h-38.1v120.5H255V284.8h-25.7V250.1z"/>
		<path class="st2" d="M229.8,250.6h25.7v-23.3c0-10.3,0.3-26.1,8.3-35.9c8.4-10.4,20-17.5,39.9-17.5c32.4,0,46.1,4.3,46.1,4.3
			l-6.4,35.5c0,0-10.7-2.9-20.7-2.9c-10,0-18.9,3.3-18.9,12.7v27.1h41l-2.9,34.7h-38.1v120.5h-48.2V285.3h-25.7V250.6z"/>
		<path class="st2" d="M230.3,251.1H256v-23.3c0-10.3,0.3-26.1,8.3-35.9c8.4-10.4,20-17.5,39.9-17.5c32.4,0,46.1,4.3,46.1,4.3
			l-6.4,35.5c0,0-10.7-2.9-20.7-2.9c-10,0-18.9,3.3-18.9,12.7v27.1h41l-2.9,34.7h-38.1v120.5H256V285.8h-25.7V251.1z"/>
		<path class="st2" d="M230.9,251.7h25.7v-23.3c0-10.3,0.3-26.1,8.3-35.9c8.4-10.4,20-17.5,39.9-17.5c32.4,0,46.1,4.3,46.1,4.3
			l-6.4,35.5c0,0-10.7-2.9-20.7-2.9c-10,0-18.9,3.3-18.9,12.7v27.1h41l-2.9,34.7h-38.1v120.5h-48.2V286.3h-25.7V251.7z"/>
		<path class="st2" d="M231.4,252.2h25.7v-23.3c0-10.3,0.3-26.1,8.3-35.9c8.4-10.4,20-17.5,39.9-17.5c32.4,0,46.1,4.3,46.1,4.3
			l-6.4,35.5c0,0-10.7-2.9-20.7-2.9c-10,0-18.9,3.3-18.9,12.7v27.1h41l-2.9,34.7h-38.1v120.5h-48.2V286.9h-25.7V252.2z"/>
		<path class="st2" d="M231.9,252.7h25.7v-23.3c0-10.3,0.3-26.1,8.3-35.9c8.4-10.4,20-17.5,39.9-17.5c32.4,0,46.1,4.3,46.1,4.3
			l-6.4,35.5c0,0-10.7-2.9-20.7-2.9c-10,0-18.9,3.3-18.9,12.7v27.1h41l-2.9,34.7h-38.1v120.5h-48.2V287.4h-25.7V252.7z"/>
		<path class="st2" d="M232.4,253.2h25.7v-23.3c0-10.3,0.3-26.1,8.3-35.9c8.4-10.4,20-17.5,39.9-17.5c32.4,0,46.1,4.3,46.1,4.3
			l-6.4,35.5c0,0-10.7-2.9-20.7-2.9c-10,0-18.9,3.3-18.9,12.7v27.1h41l-2.9,34.7h-38.1v120.5h-48.2V287.9h-25.7V253.2z"/>
		<path class="st2" d="M232.9,253.7h25.7v-23.3c0-10.3,0.3-26.1,8.3-35.9c8.4-10.4,20-17.5,39.9-17.5c32.4,0,46.1,4.3,46.1,4.3
			l-6.4,35.5c0,0-10.7-2.9-20.7-2.9c-10,0-18.9,3.3-18.9,12.7v27.1h41l-2.9,34.7h-38.1v120.5h-48.2V288.4h-25.7V253.7z"/>
		<path class="st2" d="M233.4,254.2h25.7v-23.3c0-10.3,0.3-26.1,8.3-35.9c8.4-10.4,20-17.5,39.9-17.5c32.4,0,46.1,4.3,46.1,4.3
			l-6.4,35.5c0,0-10.7-2.9-20.7-2.9c-10,0-18.9,3.3-18.9,12.7v27.1h41l-2.9,34.7h-38.1v120.5h-48.2V288.9h-25.7V254.2z"/>
		<path class="st2" d="M233.9,254.7h25.7v-23.3c0-10.3,0.3-26.1,8.3-35.9c8.4-10.4,20-17.5,39.9-17.5c32.4,0,46.1,4.3,46.1,4.3
			l-6.4,35.5c0,0-10.7-2.9-20.7-2.9c-10,0-18.9,3.3-18.9,12.7v27.1h41l-2.9,34.7h-38.1V410h-48.2V289.4h-25.7V254.7z"/>
		<path class="st2" d="M234.4,255.2h25.7v-23.3c0-10.3,0.3-26.1,8.3-35.9c8.4-10.4,20-17.5,39.9-17.5c32.4,0,46.1,4.3,46.1,4.3
			l-6.4,35.5c0,0-10.7-2.9-20.7-2.9c-10,0-18.9,3.3-18.9,12.7v27.1h41l-2.9,34.7h-38.1v120.5h-48.2V289.9h-25.7V255.2z"/>
		<path class="st2" d="M234.9,255.7h25.7v-23.3c0-10.3,0.3-26.1,8.3-35.9c8.4-10.4,20-17.5,39.9-17.5c32.4,0,46.1,4.3,46.1,4.3
			l-6.4,35.5c0,0-10.7-2.9-20.7-2.9c-10,0-18.9,3.3-18.9,12.7v27.1h41l-2.9,34.7h-38.1V411h-48.2V290.4h-25.7V255.7z"/>
		<path class="st2" d="M235.5,256.2h25.7v-23.3c0-10.3,0.3-26.1,8.3-35.9c8.4-10.4,20-17.5,39.9-17.5c32.4,0,46.1,4.3,46.1,4.3
			l-6.4,35.5c0,0-10.7-2.9-20.7-2.9c-10,0-18.9,3.3-18.9,12.7v27.1h41l-2.9,34.7h-38.1v120.5h-48.2V290.9h-25.7V256.2z"/>
		<path class="st2" d="M236,256.8h25.7v-23.3c0-10.3,0.3-26.1,8.3-35.9c8.4-10.4,20-17.5,39.9-17.5c32.4,0,46.1,4.3,46.1,4.3
			l-6.4,35.5c0,0-10.7-2.9-20.7-2.9c-10,0-18.9,3.3-18.9,12.7v27.1h41l-2.9,34.7h-38.1V412h-48.2V291.5H236V256.8z"/>
		<path class="st2" d="M236.5,257.3h25.7V234c0-10.3,0.3-26.1,8.3-35.9c8.4-10.4,20-17.5,39.9-17.5c32.4,0,46.1,4.3,46.1,4.3
			l-6.4,35.5c0,0-10.7-2.9-20.7-2.9c-10,0-18.9,3.3-18.9,12.7v27.1h41l-2.9,34.7h-38.1v120.5h-48.2V292h-25.7V257.3z"/>
		<path class="st2" d="M237,257.8h25.7v-23.3c0-10.3,0.3-26.1,8.3-35.9c8.4-10.4,20-17.5,39.9-17.5c32.4,0,46.1,4.3,46.1,4.3
			l-6.4,35.5c0,0-10.7-2.9-20.7-2.9c-10,0-18.9,3.3-18.9,12.7v27.1h41l-2.9,34.7h-38.1V413h-48.2V292.5H237V257.8z"/>
		<path class="st2" d="M237.5,258.3h25.7V235c0-10.3,0.3-26.1,8.3-35.9c8.4-10.4,20-17.5,39.9-17.5c32.4,0,46.1,4.3,46.1,4.3
			l-6.4,35.5c0,0-10.7-2.9-20.7-2.9c-10,0-18.9,3.3-18.9,12.7v27.1h41l-2.9,34.7h-38.1v120.5h-48.2V293h-25.7V258.3z"/>
		<path class="st2" d="M238,258.8h25.7v-23.3c0-10.3,0.3-26.1,8.3-35.9c8.4-10.4,20-17.5,39.9-17.5c32.4,0,46.1,4.3,46.1,4.3
			l-6.4,35.5c0,0-10.7-2.9-20.7-2.9c-10,0-18.9,3.3-18.9,12.7v27.1h41l-2.9,34.7h-38.1V414h-48.2V293.5H238V258.8z"/>
		<path class="st2" d="M238.5,259.3h25.7V236c0-10.3,0.3-26.1,8.3-35.9c8.4-10.4,20-17.5,39.9-17.5c32.4,0,46.1,4.3,46.1,4.3
			l-6.4,35.5c0,0-10.7-2.9-20.7-2.9c-10,0-18.9,3.3-18.9,12.7v27.1h41l-2.9,34.7h-38.1v120.5h-48.2V294h-25.7V259.3z"/>
		<path class="st2" d="M239,259.8h25.7v-23.3c0-10.3,0.3-26.1,8.3-35.9c8.4-10.4,20-17.5,39.9-17.5c32.4,0,46.1,4.3,46.1,4.3
			l-6.4,35.5c0,0-10.7-2.9-20.7-2.9c-10,0-18.9,3.3-18.9,12.7v27.1h41l-2.9,34.7h-38.1v120.5h-48.2V294.5H239V259.8z"/>
		<path class="st2" d="M239.5,260.3h25.7V237c0-10.3,0.3-26.1,8.3-35.9c8.4-10.4,20-17.5,39.9-17.5c32.4,0,46.1,4.3,46.1,4.3
			l-6.4,35.5c0,0-10.7-2.9-20.7-2.9c-10,0-18.9,3.3-18.9,12.7v27.1h41l-2.9,34.7h-38.1v120.5h-48.2V295h-25.7V260.3z"/>
		<path class="st2" d="M240.1,260.8h25.7v-23.3c0-10.3,0.3-26.1,8.3-35.9c8.4-10.4,20-17.5,39.9-17.5c32.4,0,46.1,4.3,46.1,4.3
			l-6.4,35.5c0,0-10.7-2.9-20.7-2.9c-10,0-18.9,3.3-18.9,12.7v27.1h41l-2.9,34.7h-38.1v120.5h-48.2V295.5h-25.7V260.8z"/>
		<path class="st2" d="M240.6,261.4h25.7v-23.3c0-10.3,0.3-26.1,8.3-35.9c8.4-10.4,20-17.5,39.9-17.5c32.4,0,46.1,4.3,46.1,4.3
			l-6.4,35.5c0,0-10.7-2.9-20.7-2.9c-10,0-18.9,3.3-18.9,12.7v27.1h41l-2.9,34.7h-38.1v120.5h-48.2V296.1h-25.7V261.4z"/>
		<path class="st2" d="M241.1,261.9h25.7v-23.3c0-10.3,0.3-26.1,8.3-35.9c8.4-10.4,20-17.5,39.9-17.5c32.4,0,46.1,4.3,46.1,4.3
			l-6.4,35.5c0,0-10.7-2.9-20.7-2.9c-10,0-18.9,3.3-18.9,12.7v27.1h41l-2.9,34.7h-38.1v120.5h-48.2V296.6h-25.7V261.9z"/>
		<path class="st2" d="M241.6,262.4h25.7v-23.3c0-10.3,0.3-26.1,8.3-35.9c8.4-10.4,20-17.5,39.9-17.5c32.4,0,46.1,4.3,46.1,4.3
			l-6.4,35.5c0,0-10.7-2.9-20.7-2.9c-10,0-18.9,3.3-18.9,12.7v27.1h41l-2.9,34.7h-38.1v120.5h-48.2V297.1h-25.7V262.4z"/>
		<path class="st2" d="M242.1,262.9h25.7v-23.3c0-10.3,0.3-26.1,8.3-35.9c8.4-10.4,20-17.5,39.9-17.5c32.4,0,46.1,4.3,46.1,4.3
			l-6.4,35.5c0,0-10.7-2.9-20.7-2.9c-10,0-18.9,3.3-18.9,12.7v27.1h41l-2.9,34.7H316v120.5h-48.2V297.6h-25.7V262.9z"/>
		<path class="st2" d="M242.6,263.4h25.7v-23.3c0-10.3,0.3-26.1,8.3-35.9c8.4-10.4,20-17.5,39.9-17.5c32.4,0,46.1,4.3,46.1,4.3
			l-6.4,35.5c0,0-10.7-2.9-20.7-2.9c-10,0-18.9,3.3-18.9,12.7v27.1h41l-2.9,34.7h-38.1v120.5h-48.2V298.1h-25.7V263.4z"/>
		<path class="st2" d="M243.1,263.9h25.7v-23.3c0-10.3,0.3-26.1,8.3-35.9c8.4-10.4,20-17.5,39.9-17.5c32.4,0,46.1,4.3,46.1,4.3
			l-6.4,35.5c0,0-10.7-2.9-20.7-2.9c-10,0-18.9,3.3-18.9,12.7v27.1h41l-2.9,34.7H317v120.5h-48.2V298.6h-25.7V263.9z"/>
		<path class="st2" d="M243.6,264.4h25.7v-23.3c0-10.3,0.3-26.1,8.3-35.9c8.4-10.4,20-17.5,39.9-17.5c32.4,0,46.1,4.3,46.1,4.3
			l-6.4,35.5c0,0-10.7-2.9-20.7-2.9c-10,0-18.9,3.3-18.9,12.7v27.1h41l-2.9,34.7h-38.1v120.5h-48.2V299.1h-25.7V264.4z"/>
		<path class="st2" d="M244.1,264.9h25.7v-23.3c0-10.3,0.3-26.1,8.3-35.9c8.4-10.4,20-17.5,39.9-17.5c32.4,0,46.1,4.3,46.1,4.3
			l-6.4,35.5c0,0-10.7-2.9-20.7-2.9c-10,0-18.9,3.3-18.9,12.7v27.1h41l-2.9,34.7H318v120.5h-48.2V299.6h-25.7V264.9z"/>
		<path class="st2" d="M244.6,265.4h25.7v-23.3c0-10.3,0.3-26.1,8.3-35.9c8.4-10.4,20-17.5,39.9-17.5c32.4,0,46.1,4.3,46.1,4.3
			l-6.4,35.5c0,0-10.7-2.9-20.7-2.9c-10,0-18.9,3.3-18.9,12.7v27.1h41l-2.9,34.7h-38.1v120.5h-48.2V300.1h-25.7V265.4z"/>
		<path class="st2" d="M245.2,266h25.7v-23.3c0-10.3,0.3-26.1,8.3-35.9c8.4-10.4,20-17.5,39.9-17.5c32.4,0,46.1,4.3,46.1,4.3
			l-6.4,35.5c0,0-10.7-2.9-20.7-2.9c-10,0-18.9,3.3-18.9,12.7V266h41l-2.9,34.7H319v120.5h-48.2V300.7h-25.7V266z"/>
		<path class="st2" d="M245.7,266.5h25.7v-23.3c0-10.3,0.3-26.1,8.3-35.9c8.4-10.4,20-17.5,39.9-17.5c32.4,0,46.1,4.3,46.1,4.3
			l-6.4,35.5c0,0-10.7-2.9-20.7-2.9c-10,0-18.9,3.3-18.9,12.7v27.1h41l-2.9,34.7h-38.1v120.5h-48.2V301.2h-25.7V266.5z"/>
		<path class="st2" d="M246.2,267h25.7v-23.3c0-10.3,0.3-26.1,8.3-35.9c8.4-10.4,20-17.5,39.9-17.5c32.4,0,46.1,4.3,46.1,4.3
			l-6.4,35.5c0,0-10.7-2.9-20.7-2.9c-10,0-18.9,3.3-18.9,12.7V267h41l-2.9,34.7h-38.1v120.5h-48.2V301.7h-25.7V267z"/>
		<path class="st2" d="M246.7,267.5h25.7v-23.3c0-10.3,0.3-26.1,8.3-35.9c8.4-10.4,20-17.5,39.9-17.5c32.4,0,46.1,4.3,46.1,4.3
			l-6.4,35.5c0,0-10.7-2.9-20.7-2.9c-10,0-18.9,3.3-18.9,12.7v27.1h41l-2.9,34.7h-38.1v120.5h-48.2V302.2h-25.7V267.5z"/>
		<path class="st2" d="M247.2,268h25.7v-23.3c0-10.3,0.3-26.1,8.3-35.9c8.4-10.4,20-17.5,39.9-17.5c32.4,0,46.1,4.3,46.1,4.3
			l-6.4,35.5c0,0-10.7-2.9-20.7-2.9c-10,0-18.9,3.3-18.9,12.7V268h41l-2.9,34.7h-38.1v120.5h-48.2V302.7h-25.7V268z"/>
		<path class="st2" d="M247.7,268.5h25.7v-23.3c0-10.3,0.3-26.1,8.3-35.9c8.4-10.4,20-17.5,39.9-17.5c32.4,0,46.1,4.3,46.1,4.3
			l-6.4,35.5c0,0-10.7-2.9-20.7-2.9c-10,0-18.9,3.3-18.9,12.7v27.1h41l-2.9,34.7h-38.1v120.5h-48.2V303.2h-25.7V268.5z"/>
		<path class="st2" d="M248.2,269h25.7v-23.3c0-10.3,0.3-26.1,8.3-35.9c8.4-10.4,20-17.5,39.9-17.5c32.4,0,46.1,4.3,46.1,4.3
			l-6.4,35.5c0,0-10.7-2.9-20.7-2.9c-10,0-18.9,3.3-18.9,12.7V269h41l-2.9,34.7h-38.1v120.5h-48.2V303.7h-25.7V269z"/>
		<path class="st2" d="M248.7,269.5h25.7v-23.3c0-10.3,0.3-26.1,8.3-35.9c8.4-10.4,20-17.5,39.9-17.5c32.4,0,46.1,4.3,46.1,4.3
			l-6.4,35.5c0,0-10.7-2.9-20.7-2.9c-10,0-18.9,3.3-18.9,12.7v27.1h41l-2.9,34.7h-38.1v120.5h-48.2V304.2h-25.7V269.5z"/>
		<path class="st2" d="M249.2,270h25.7v-23.3c0-10.3,0.3-26.1,8.3-35.9c8.4-10.4,20-17.5,39.9-17.5c32.4,0,46.1,4.3,46.1,4.3
			l-6.4,35.5c0,0-10.7-2.9-20.7-2.9c-10,0-18.9,3.3-18.9,12.7V270h41l-2.9,34.7h-38.1v120.5h-48.2V304.7h-25.7V270z"/>
		<path class="st2" d="M249.8,270.6h25.7v-23.3c0-10.3,0.3-26.1,8.3-35.9c8.4-10.4,20-17.5,39.9-17.5c32.4,0,46.1,4.3,46.1,4.3
			l-6.4,35.5c0,0-10.7-2.9-20.7-2.9c-10,0-18.9,3.3-18.9,12.7v27.1h41l-2.9,34.7h-38.1v120.5h-48.2V305.3h-25.7V270.6z"/>
		<path class="st2" d="M250.3,271.1H276v-23.3c0-10.3,0.3-26.1,8.3-35.9c8.4-10.4,20-17.5,39.9-17.5c32.4,0,46.1,4.3,46.1,4.3
			l-6.4,35.5c0,0-10.7-2.9-20.7-2.9c-10,0-18.9,3.3-18.9,12.7v27.1h41l-2.9,34.7h-38.1v120.5H276V305.8h-25.7V271.1z"/>
		<path class="st2" d="M250.8,271.6h25.7v-23.3c0-10.3,0.3-26.1,8.3-35.9c8.4-10.4,20-17.5,39.9-17.5c32.4,0,46.1,4.3,46.1,4.3
			l-6.4,35.5c0,0-10.7-2.9-20.7-2.9c-10,0-18.9,3.3-18.9,12.7v27.1h41l-2.9,34.7h-38.1v120.5h-48.2V306.3h-25.7V271.6z"/>
		<path class="st2" d="M251.3,272.1H277v-23.3c0-10.3,0.3-26.1,8.3-35.9c8.4-10.4,20-17.5,39.9-17.5c32.4,0,46.1,4.3,46.1,4.3
			l-6.4,35.5c0,0-10.7-2.9-20.7-2.9c-10,0-18.9,3.3-18.9,12.7v27.1h41l-2.9,34.7h-38.1v120.5H277V306.8h-25.7V272.1z"/>
		<path class="st2" d="M251.8,272.6h25.7v-23.3c0-10.3,0.3-26.1,8.3-35.9c8.4-10.4,20-17.5,39.9-17.5c32.4,0,46.1,4.3,46.1,4.3
			l-6.4,35.5c0,0-10.7-2.9-20.7-2.9c-10,0-18.9,3.3-18.9,12.7v27.1h41l-2.9,34.7h-38.1v120.5h-48.2V307.3h-25.7V272.6z"/>
		<path class="st2" d="M252.3,273.1H278v-23.3c0-10.3,0.3-26.1,8.3-35.9c8.4-10.4,20-17.5,39.9-17.5c32.4,0,46.1,4.3,46.1,4.3
			l-6.4,35.5c0,0-10.7-2.9-20.7-2.9c-10,0-18.9,3.3-18.9,12.7v27.1h41l-2.9,34.7h-38.1v120.5H278V307.8h-25.7V273.1z"/>
		<path class="st2" d="M252.8,273.6h25.7v-23.3c0-10.3,0.3-26.1,8.3-35.9c8.4-10.4,20-17.5,39.9-17.5c32.4,0,46.1,4.3,46.1,4.3
			l-6.4,35.5c0,0-10.7-2.9-20.7-2.9c-10,0-18.9,3.3-18.9,12.7v27.1h41l-2.9,34.7h-38.1v120.5h-48.2V308.3h-25.7V273.6z"/>
		<path class="st2" d="M253.3,274.1H279v-23.3c0-10.3,0.3-26.1,8.3-35.9c8.4-10.4,20-17.5,39.9-17.5c32.4,0,46.1,4.3,46.1,4.3
			l-6.4,35.5c0,0-10.7-2.9-20.7-2.9c-10,0-18.9,3.3-18.9,12.7v27.1h41l-2.9,34.7h-38.1v120.5H279V308.8h-25.7V274.1z"/>
		<path class="st2" d="M253.8,274.6h25.7v-23.3c0-10.3,0.3-26.1,8.3-35.9c8.4-10.4,20-17.5,39.9-17.5c32.4,0,46.1,4.3,46.1,4.3
			l-6.4,35.5c0,0-10.7-2.9-20.7-2.9c-10,0-18.9,3.3-18.9,12.7v27.1h41l-2.9,34.7h-38.1v120.5h-48.2V309.3h-25.7V274.6z"/>
		<path class="st2" d="M254.4,275.2h25.7v-23.3c0-10.3,0.3-26.1,8.3-35.9c8.4-10.4,20-17.5,39.9-17.5c32.4,0,46.1,4.3,46.1,4.3
			l-6.4,35.5c0,0-10.7-2.9-20.7-2.9c-10,0-18.9,3.3-18.9,12.7v27.1h41l-2.9,34.7h-38.1v120.5h-48.2V309.9h-25.7V275.2z"/>
		<path class="st2" d="M254.9,275.7h25.7v-23.3c0-10.3,0.3-26.1,8.3-35.9c8.4-10.4,20-17.5,39.9-17.5c32.4,0,46.1,4.3,46.1,4.3
			l-6.4,35.5c0,0-10.7-2.9-20.7-2.9c-10,0-18.9,3.3-18.9,12.7v27.1h41l-2.9,34.7h-38.1v120.5h-48.2V310.4h-25.7V275.7z"/>
		<path class="st2" d="M255.4,276.2h25.7v-23.3c0-10.3,0.3-26.1,8.3-35.9c8.4-10.4,20-17.5,39.9-17.5c32.4,0,46.1,4.3,46.1,4.3
			l-6.4,35.5c0,0-10.7-2.9-20.7-2.9c-10,0-18.9,3.3-18.9,12.7v27.1h41l-2.9,34.7h-38.1v120.5h-48.2V310.9h-25.7V276.2z"/>
		<path class="st2" d="M255.9,276.7h25.7v-23.3c0-10.3,0.3-26.1,8.3-35.9c8.4-10.4,20-17.5,39.9-17.5c32.4,0,46.1,4.3,46.1,4.3
			l-6.4,35.5c0,0-10.7-2.9-20.7-2.9c-10,0-18.9,3.3-18.9,12.7v27.1h41l-2.9,34.7h-38.1v120.5h-48.2V311.4h-25.7V276.7z"/>
		<path class="st2" d="M256.4,277.2h25.7v-23.3c0-10.3,0.3-26.1,8.3-35.9c8.4-10.4,20-17.5,39.9-17.5c32.4,0,46.1,4.3,46.1,4.3
			l-6.4,35.5c0,0-10.7-2.9-20.7-2.9c-10,0-18.9,3.3-18.9,12.7v27.1h41l-2.9,34.7h-38.1v120.5h-48.2V311.9h-25.7V277.2z"/>
		<path class="st2" d="M256.9,277.7h25.7v-23.3c0-10.3,0.3-26.1,8.3-35.9c8.4-10.4,20-17.5,39.9-17.5c32.4,0,46.1,4.3,46.1,4.3
			l-6.4,35.5c0,0-10.7-2.9-20.7-2.9c-10,0-18.9,3.3-18.9,12.7v27.1h41l-2.9,34.7h-38.1v120.5h-48.2V312.4h-25.7V277.7z"/>
		<path class="st2" d="M257.4,278.2h25.7v-23.3c0-10.3,0.3-26.1,8.3-35.9c8.4-10.4,20-17.5,39.9-17.5c32.4,0,46.1,4.3,46.1,4.3
			l-6.4,35.5c0,0-10.7-2.9-20.7-2.9c-10,0-18.9,3.3-18.9,12.7v27.1h41l-2.9,34.7h-38.1v120.5h-48.2V312.9h-25.7V278.2z"/>
		<path class="st2" d="M257.9,278.7h25.7v-23.3c0-10.3,0.3-26.1,8.3-35.9c8.4-10.4,20-17.5,39.9-17.5c32.4,0,46.1,4.3,46.1,4.3
			l-6.4,35.5c0,0-10.7-2.9-20.7-2.9c-10,0-18.9,3.3-18.9,12.7v27.1h41l-2.9,34.7h-38.1V434h-48.2V313.4h-25.7V278.7z"/>
		<path class="st2" d="M258.4,279.2h25.7v-23.3c0-10.3,0.3-26.1,8.3-35.9c8.4-10.4,20-17.5,39.9-17.5c32.4,0,46.1,4.3,46.1,4.3
			l-6.4,35.5c0,0-10.7-2.9-20.7-2.9c-10,0-18.9,3.3-18.9,12.7v27.1h41l-2.9,34.7h-38.1v120.5h-48.2V313.9h-25.7V279.2z"/>
		<path class="st2" d="M259,279.8h25.7v-23.3c0-10.3,0.3-26.1,8.3-35.9c8.4-10.4,20-17.5,39.9-17.5c32.4,0,46.1,4.3,46.1,4.3
			l-6.4,35.5c0,0-10.7-2.9-20.7-2.9c-10,0-18.9,3.3-18.9,12.7v27.1h41l-2.9,34.7h-38.1V435h-48.2V314.4H259V279.8z"/>
		<path class="st2" d="M259.5,280.3h25.7V257c0-10.3,0.3-26.1,8.3-35.9c8.4-10.4,20-17.5,39.9-17.5c32.4,0,46.1,4.3,46.1,4.3
			l-6.4,35.5c0,0-10.7-2.9-20.7-2.9c-10,0-18.9,3.3-18.9,12.7v27.1h41l-2.9,34.7h-38.1v120.5h-48.2V315h-25.7V280.3z"/>
		<path class="st2" d="M260,280.8h25.7v-23.3c0-10.3,0.3-26.1,8.3-35.9c8.4-10.4,20-17.5,39.9-17.5c32.4,0,46.1,4.3,46.1,4.3
			l-6.4,35.5c0,0-10.7-2.9-20.7-2.9c-10,0-18.9,3.3-18.9,12.7v27.1h41l-2.9,34.7h-38.1V436h-48.2V315.5H260V280.8z"/>
		<path class="st2" d="M260.5,281.3h25.7V258c0-10.3,0.3-26.1,8.3-35.9c8.4-10.4,20-17.5,39.9-17.5c32.4,0,46.1,4.3,46.1,4.3
			l-6.4,35.5c0,0-10.7-2.9-20.7-2.9c-10,0-18.9,3.3-18.9,12.7v27.1h41l-2.9,34.7h-38.1v120.5h-48.2V316h-25.7V281.3z"/>
		<path class="st2" d="M261,281.8h25.7v-23.3c0-10.3,0.3-26.1,8.3-35.9c8.4-10.4,20-17.5,39.9-17.5c32.4,0,46.1,4.3,46.1,4.3
			l-6.4,35.5c0,0-10.7-2.9-20.7-2.9c-10,0-18.9,3.3-18.9,12.7v27.1h41l-2.9,34.7h-38.1V437h-48.2V316.5H261V281.8z"/>
		<path class="st2" d="M261.5,282.3h25.7V259c0-10.3,0.3-26.1,8.3-35.9c8.4-10.4,20-17.5,39.9-17.5c32.4,0,46.1,4.3,46.1,4.3
			l-6.4,35.5c0,0-10.7-2.9-20.7-2.9c-10,0-18.9,3.3-18.9,12.7v27.1h41l-2.9,34.7h-38.1v120.5h-48.2V317h-25.7V282.3z"/>
		<path class="st2" d="M262,282.8h25.7v-23.3c0-10.3,0.3-26.1,8.3-35.9c8.4-10.4,20-17.5,39.9-17.5c32.4,0,46.1,4.3,46.1,4.3
			l-6.4,35.5c0,0-10.7-2.9-20.7-2.9c-10,0-18.9,3.3-18.9,12.7v27.1h41l-2.9,34.7h-38.1v120.5h-48.2V317.5H262V282.8z"/>
		<path class="st2" d="M262.5,283.3h25.7V260c0-10.3,0.3-26.1,8.3-35.9c8.4-10.4,20-17.5,39.9-17.5c32.4,0,46.1,4.3,46.1,4.3
			l-6.4,35.5c0,0-10.7-2.9-20.7-2.9c-10,0-18.9,3.3-18.9,12.7v27.1h41l-2.9,34.7h-38.1v120.5h-48.2V318h-25.7V283.3z"/>
		<path class="st2" d="M263,283.8h25.7v-23.3c0-10.3,0.3-26.1,8.3-35.9c8.4-10.4,20-17.5,39.9-17.5c32.4,0,46.1,4.3,46.1,4.3
			l-6.4,35.5c0,0-10.7-2.9-20.7-2.9c-10,0-18.9,3.3-18.9,12.7v27.1h41l-2.9,34.7h-38.1v120.5h-48.2V318.5H263V283.8z"/>
		<path class="st2" d="M263.6,284.3h25.7V261c0-10.3,0.3-26.1,8.3-35.9c8.4-10.4,20-17.5,39.9-17.5c32.4,0,46.1,4.3,46.1,4.3
			l-6.4,35.5c0,0-10.7-2.9-20.7-2.9c-10,0-18.9,3.3-18.9,12.7v27.1h41l-2.9,34.7h-38.1v120.5h-48.2V319h-25.7V284.3z"/>
		<path class="st2" d="M264.1,284.9h25.7v-23.3c0-10.3,0.3-26.1,8.3-35.9c8.4-10.4,20-17.5,39.9-17.5c32.4,0,46.1,4.3,46.1,4.3
			l-6.4,35.5c0,0-10.7-2.9-20.7-2.9c-10,0-18.9,3.3-18.9,12.7v27.1h41l-2.9,34.7h-38.1v120.5h-48.2V319.6h-25.7V284.9z"/>
		<path class="st2" d="M264.6,285.4h25.7v-23.3c0-10.3,0.3-26.1,8.3-35.9c8.4-10.4,20-17.5,39.9-17.5c32.4,0,46.1,4.3,46.1,4.3
			l-6.4,35.5c0,0-10.7-2.9-20.7-2.9c-10,0-18.9,3.3-18.9,12.7v27.1h41l-2.9,34.7h-38.1v120.5h-48.2V320.1h-25.7V285.4z"/>
		<path class="st2" d="M265.1,285.9h25.7v-23.3c0-10.3,0.3-26.1,8.3-35.9c8.4-10.4,20-17.5,39.9-17.5c32.4,0,46.1,4.3,46.1,4.3
			l-6.4,35.5c0,0-10.7-2.9-20.7-2.9c-10,0-18.9,3.3-18.9,12.7v27.1h41l-2.9,34.7H339v120.5h-48.2V320.6h-25.7V285.9z"/>
		<path class="st2" d="M265.6,286.4h25.7v-23.3c0-10.3,0.3-26.1,8.3-35.9c8.4-10.4,20-17.5,39.9-17.5c32.4,0,46.1,4.3,46.1,4.3
			l-6.4,35.5c0,0-10.7-2.9-20.7-2.9c-10,0-18.9,3.3-18.9,12.7v27.1h41l-2.9,34.7h-38.1v120.5h-48.2V321.1h-25.7V286.4z"/>
		<path class="st2" d="M266.1,286.9h25.7v-23.3c0-10.3,0.3-26.1,8.3-35.9c8.4-10.4,20-17.5,39.9-17.5c32.4,0,46.1,4.3,46.1,4.3
			l-6.4,35.5c0,0-10.7-2.9-20.7-2.9c-10,0-18.9,3.3-18.9,12.7v27.1h41l-2.9,34.7H340v120.5h-48.2V321.6h-25.7V286.9z"/>
		<path class="st2" d="M266.6,287.4h25.7v-23.3c0-10.3,0.3-26.1,8.3-35.9c8.4-10.4,20-17.5,39.9-17.5c32.4,0,46.1,4.3,46.1,4.3
			l-6.4,35.5c0,0-10.7-2.9-20.7-2.9c-10,0-18.9,3.3-18.9,12.7v27.1h41l-2.9,34.7h-38.1v120.5h-48.2V322.1h-25.7V287.4z"/>
		<path class="st2" d="M267.1,287.9h25.7v-23.3c0-10.3,0.3-26.1,8.3-35.9c8.4-10.4,20-17.5,39.9-17.5c32.4,0,46.1,4.3,46.1,4.3
			l-6.4,35.5c0,0-10.7-2.9-20.7-2.9c-10,0-18.9,3.3-18.9,12.7v27.1h41l-2.9,34.7H341v120.5h-48.2V322.6h-25.7V287.9z"/>
		<path class="st2" d="M267.6,288.4h25.7v-23.3c0-10.3,0.3-26.1,8.3-35.9c8.4-10.4,20-17.5,39.9-17.5c32.4,0,46.1,4.3,46.1,4.3
			l-6.4,35.5c0,0-10.7-2.9-20.7-2.9c-10,0-18.9,3.3-18.9,12.7v27.1h41l-2.9,34.7h-38.1v120.5h-48.2V323.1h-25.7V288.4z"/>
		<path class="st2" d="M268.2,288.9h25.7v-23.3c0-10.3,0.3-26.1,8.3-35.9c8.4-10.4,20-17.5,39.9-17.5c32.4,0,46.1,4.3,46.1,4.3
			l-6.4,35.5c0,0-10.7-2.9-20.7-2.9c-10,0-18.9,3.3-18.9,12.7v27.1h41l-2.9,34.7H342v120.5h-48.2V323.6h-25.7V288.9z"/>
		<path class="st2" d="M268.7,289.5h25.7v-23.3c0-10.3,0.3-26.1,8.3-35.9c8.4-10.4,20-17.5,39.9-17.5c32.4,0,46.1,4.3,46.1,4.3
			l-6.4,35.5c0,0-10.7-2.9-20.7-2.9c-10,0-18.9,3.3-18.9,12.7v27.1h41l-2.9,34.7h-38.1v120.5h-48.2V324.2h-25.7V289.5z"/>
		<path class="st2" d="M269.2,290h25.7v-23.3c0-10.3,0.3-26.1,8.3-35.9c8.4-10.4,20-17.5,39.9-17.5c32.4,0,46.1,4.3,46.1,4.3
			l-6.4,35.5c0,0-10.7-2.9-20.7-2.9c-10,0-18.9,3.3-18.9,12.7V290h41l-2.9,34.7H343v120.5h-48.2V324.7h-25.7V290z"/>
		<path class="st2" d="M269.7,290.5h25.7v-23.3c0-10.3,0.3-26.1,8.3-35.9c8.4-10.4,20-17.5,39.9-17.5c32.4,0,46.1,4.3,46.1,4.3
			l-6.4,35.5c0,0-10.7-2.9-20.7-2.9c-10,0-18.9,3.3-18.9,12.7v27.1h41l-2.9,34.7h-38.1v120.5h-48.2V325.2h-25.7V290.5z"/>
		<path class="st2" d="M270.2,291h25.7v-23.3c0-10.3,0.3-26.1,8.3-35.9c8.4-10.4,20-17.5,39.9-17.5c32.4,0,46.1,4.3,46.1,4.3
			l-6.4,35.5c0,0-10.7-2.9-20.7-2.9c-10,0-18.9,3.3-18.9,12.7V291h41l-2.9,34.7h-38.1v120.5h-48.2V325.7h-25.7V291z"/>
		<path class="st2" d="M270.7,291.5h25.7v-23.3c0-10.3,0.3-26.1,8.3-35.9c8.4-10.4,20-17.5,39.9-17.5c32.4,0,46.1,4.3,46.1,4.3
			l-6.4,35.5c0,0-10.7-2.9-20.7-2.9c-10,0-18.9,3.3-18.9,12.7v27.1h41l-2.9,34.7h-38.1v120.5h-48.2V326.2h-25.7V291.5z"/>
		<path class="st2" d="M271.2,292h25.7v-23.3c0-10.3,0.3-26.1,8.3-35.9c8.4-10.4,20-17.5,39.9-17.5c32.4,0,46.1,4.3,46.1,4.3
			l-6.4,35.5c0,0-10.7-2.9-20.7-2.9c-10,0-18.9,3.3-18.9,12.7V292h41l-2.9,34.7h-38.1v120.5h-48.2V326.7h-25.7V292z"/>
		<path class="st2" d="M271.7,292.5h25.7v-23.3c0-10.3,0.3-26.1,8.3-35.9c8.4-10.4,20-17.5,39.9-17.5c32.4,0,46.1,4.3,46.1,4.3
			l-6.4,35.5c0,0-10.7-2.9-20.7-2.9c-10,0-18.9,3.3-18.9,12.7v27.1h41l-2.9,34.7h-38.1v120.5h-48.2V327.2h-25.7V292.5z"/>
		<path class="st2" d="M272.2,293h25.7v-23.3c0-10.3,0.3-26.1,8.3-35.9c8.4-10.4,20-17.5,39.9-17.5c32.4,0,46.1,4.3,46.1,4.3
			l-6.4,35.5c0,0-10.7-2.9-20.7-2.9c-10,0-18.9,3.3-18.9,12.7V293h41l-2.9,34.7h-38.1v120.5h-48.2V327.7h-25.7V293z"/>
		<path class="st2" d="M272.7,293.5h25.7v-23.3c0-10.3,0.3-26.1,8.3-35.9c8.4-10.4,20-17.5,39.9-17.5c32.4,0,46.1,4.3,46.1,4.3
			l-6.4,35.5c0,0-10.7-2.9-20.7-2.9c-10,0-18.9,3.3-18.9,12.7v27.1h41l-2.9,34.7h-38.1v120.5h-48.2V328.2h-25.7V293.5z"/>
		<path class="st2" d="M273.3,294.1H299v-23.3c0-10.3,0.3-26.1,8.3-35.9c8.4-10.4,20-17.5,39.9-17.5c32.4,0,46.1,4.3,46.1,4.3
			l-6.4,35.5c0,0-10.7-2.9-20.7-2.9c-10,0-18.9,3.3-18.9,12.7v27.1h41l-2.9,34.7h-38.1v120.5H299V328.8h-25.7V294.1z"/>
		<path class="st2" d="M273.8,294.6h25.7v-23.3c0-10.3,0.3-26.1,8.3-35.9c8.4-10.4,20-17.5,39.9-17.5c32.4,0,46.1,4.3,46.1,4.3
			l-6.4,35.5c0,0-10.7-2.9-20.7-2.9c-10,0-18.9,3.3-18.9,12.7v27.1h41l-2.9,34.7h-38.1v120.5h-48.2V329.3h-25.7V294.6z"/>
		<path class="st2" d="M274.3,295.1H300v-23.3c0-10.3,0.3-26.1,8.3-35.9c8.4-10.4,20-17.5,39.9-17.5c32.4,0,46.1,4.3,46.1,4.3
			l-6.4,35.5c0,0-10.7-2.9-20.7-2.9c-10,0-18.9,3.3-18.9,12.7v27.1h41l-2.9,34.7h-38.1v120.5H300V329.8h-25.7V295.1z"/>
		<path class="st2" d="M274.8,295.6h25.7v-23.3c0-10.3,0.3-26.1,8.3-35.9c8.4-10.4,20-17.5,39.9-17.5c32.4,0,46.1,4.3,46.1,4.3
			l-6.4,35.5c0,0-10.7-2.9-20.7-2.9c-10,0-18.9,3.3-18.9,12.7v27.1h41l-2.9,34.7h-38.1v120.5h-48.2V330.3h-25.7V295.6z"/>
		<path class="st2" d="M275.3,296.1H301v-23.3c0-10.3,0.3-26.1,8.3-35.9c8.4-10.4,20-17.5,39.9-17.5c32.4,0,46.1,4.3,46.1,4.3
			l-6.4,35.5c0,0-10.7-2.9-20.7-2.9c-10,0-18.9,3.3-18.9,12.7v27.1h41l-2.9,34.7h-38.1v120.5H301V330.8h-25.7V296.1z"/>
		<path class="st2" d="M275.8,296.6h25.7v-23.3c0-10.3,0.3-26.1,8.3-35.9c8.4-10.4,20-17.5,39.9-17.5c32.4,0,46.1,4.3,46.1,4.3
			l-6.4,35.5c0,0-10.7-2.9-20.7-2.9c-10,0-18.9,3.3-18.9,12.7v27.1h41l-2.9,34.7h-38.1v120.5h-48.2V331.3h-25.7V296.6z"/>
		<path class="st2" d="M276.3,297.1H302v-23.3c0-10.3,0.3-26.1,8.3-35.9c8.4-10.4,20-17.5,39.9-17.5c32.4,0,46.1,4.3,46.1,4.3
			l-6.4,35.5c0,0-10.7-2.9-20.7-2.9c-10,0-18.9,3.3-18.9,12.7v27.1h41l-2.9,34.7h-38.1v120.5H302V331.8h-25.7V297.1z"/>
		<path class="st2" d="M276.8,297.6h25.7v-23.3c0-10.3,0.3-26.1,8.3-35.9c8.4-10.4,20-17.5,39.9-17.5c32.4,0,46.1,4.3,46.1,4.3
			l-6.4,35.5c0,0-10.7-2.9-20.7-2.9c-10,0-18.9,3.3-18.9,12.7v27.1h41l-2.9,34.7h-38.1v120.5h-48.2V332.3h-25.7V297.6z"/>
		<path class="st2" d="M277.3,298.1H303v-23.3c0-10.3,0.3-26.1,8.3-35.9c8.4-10.4,20-17.5,39.9-17.5c32.4,0,46.1,4.3,46.1,4.3
			l-6.4,35.5c0,0-10.7-2.9-20.7-2.9c-10,0-18.9,3.3-18.9,12.7v27.1h41l-2.9,34.7h-38.1v120.5H303V332.8h-25.7V298.1z"/>
		<path class="st2" d="M277.9,298.7h25.7v-23.3c0-10.3,0.3-26.1,8.3-35.9c8.4-10.4,20-17.5,39.9-17.5c32.4,0,46.1,4.3,46.1,4.3
			l-6.4,35.5c0,0-10.7-2.9-20.7-2.9c-10,0-18.9,3.3-18.9,12.7v27.1h41l-2.9,34.7h-38.1v120.5h-48.2V333.4h-25.7V298.7z"/>
		<path class="st2" d="M278.4,299.2h25.7v-23.3c0-10.3,0.3-26.1,8.3-35.9c8.4-10.4,20-17.5,39.9-17.5c32.4,0,46.1,4.3,46.1,4.3
			l-6.4,35.5c0,0-10.7-2.9-20.7-2.9c-10,0-18.9,3.3-18.9,12.7v27.1h41l-2.9,34.7h-38.1v120.5h-48.2V333.9h-25.7V299.2z"/>
		<path class="st2" d="M278.9,299.7h25.7v-23.3c0-10.3,0.3-26.1,8.3-35.9c8.4-10.4,20-17.5,39.9-17.5c32.4,0,46.1,4.3,46.1,4.3
			l-6.4,35.5c0,0-10.7-2.9-20.7-2.9c-10,0-18.9,3.3-18.9,12.7v27.1h41l-2.9,34.7h-38.1v120.5h-48.2V334.4h-25.7V299.7z"/>
		<path class="st2" d="M279.4,300.2h25.7v-23.3c0-10.3,0.3-26.1,8.3-35.9c8.4-10.4,20-17.5,39.9-17.5c32.4,0,46.1,4.3,46.1,4.3
			l-6.4,35.5c0,0-10.7-2.9-20.7-2.9c-10,0-18.9,3.3-18.9,12.7v27.1h41l-2.9,34.7h-38.1v120.5h-48.2V334.9h-25.7V300.2z"/>
		<path class="st2" d="M279.9,300.7h25.7v-23.3c0-10.3,0.3-26.1,8.3-35.9c8.4-10.4,20-17.5,39.9-17.5c32.4,0,46.1,4.3,46.1,4.3
			l-6.4,35.5c0,0-10.7-2.9-20.7-2.9c-10,0-18.9,3.3-18.9,12.7v27.1h41l-2.9,34.7h-38.1v120.5h-48.2V335.4h-25.7V300.7z"/>
		<path class="st2" d="M280.4,301.2h25.7v-23.3c0-10.3,0.3-26.1,8.3-35.9c8.4-10.4,20-17.5,39.9-17.5c32.4,0,46.1,4.3,46.1,4.3
			l-6.4,35.5c0,0-10.7-2.9-20.7-2.9c-10,0-18.9,3.3-18.9,12.7v27.1h41l-2.9,34.7h-38.1v120.5h-48.2V335.9h-25.7V301.2z"/>
		<path class="st2" d="M280.9,301.7h25.7v-23.3c0-10.3,0.3-26.1,8.3-35.9c8.4-10.4,20-17.5,39.9-17.5c32.4,0,46.1,4.3,46.1,4.3
			l-6.4,35.5c0,0-10.7-2.9-20.7-2.9c-10,0-18.9,3.3-18.9,12.7v27.1h41l-2.9,34.7h-38.1V457h-48.2V336.4h-25.7V301.7z"/>
		<path class="st2" d="M281.4,302.2h25.7v-23.3c0-10.3,0.3-26.1,8.3-35.9c8.4-10.4,20-17.5,39.9-17.5c32.4,0,46.1,4.3,46.1,4.3
			l-6.4,35.5c0,0-10.7-2.9-20.7-2.9c-10,0-18.9,3.3-18.9,12.7v27.1h41l-2.9,34.7h-38.1v120.5h-48.2V336.9h-25.7V302.2z"/>
		<path class="st2" d="M281.9,302.7h25.7v-23.3c0-10.3,0.3-26.1,8.3-35.9c8.4-10.4,20-17.5,39.9-17.5c32.4,0,46.1,4.3,46.1,4.3
			l-6.4,35.5c0,0-10.7-2.9-20.7-2.9c-10,0-18.9,3.3-18.9,12.7v27.1h41l-2.9,34.7h-38.1V458h-48.2V337.4h-25.7V302.7z"/>
		<path class="st2" d="M282.5,303.3h25.7V280c0-10.3,0.3-26.1,8.3-35.9c8.4-10.4,20-17.5,39.9-17.5c32.4,0,46.1,4.3,46.1,4.3
			l-6.4,35.5c0,0-10.7-2.9-20.7-2.9c-10,0-18.9,3.3-18.9,12.7v27.1h41l-2.9,34.7h-38.1v120.5h-48.2V338h-25.7V303.3z"/>
		<path class="st2" d="M283,303.8h25.7v-23.3c0-10.3,0.3-26.1,8.3-35.9c8.4-10.4,20-17.5,39.9-17.5c32.4,0,46.1,4.3,46.1,4.3
			l-6.4,35.5c0,0-10.7-2.9-20.7-2.9c-10,0-18.9,3.3-18.9,12.7v27.1h41l-2.9,34.7h-38.1V459h-48.2V338.5H283V303.8z"/>
		<path class="st2" d="M283.5,304.3h25.7V281c0-10.3,0.3-26.1,8.3-35.9c8.4-10.4,20-17.5,39.9-17.5c32.4,0,46.1,4.3,46.1,4.3
			l-6.4,35.5c0,0-10.7-2.9-20.7-2.9c-10,0-18.9,3.3-18.9,12.7v27.1h41l-2.9,34.7h-38.1v120.5h-48.2V339h-25.7V304.3z"/>
		<path class="st2" d="M284,304.8h25.7v-23.3c0-10.3,0.3-26.1,8.3-35.9c8.4-10.4,20-17.5,39.9-17.5c32.4,0,46.1,4.3,46.1,4.3
			l-6.4,35.5c0,0-10.7-2.9-20.7-2.9c-10,0-18.9,3.3-18.9,12.7v27.1h41l-2.9,34.7h-38.1V460h-48.2V339.5H284V304.8z"/>
		<path class="st2" d="M284.5,305.3h25.7V282c0-10.3,0.3-26.1,8.3-35.9c8.4-10.4,20-17.5,39.9-17.5c32.4,0,46.1,4.3,46.1,4.3
			l-6.4,35.5c0,0-10.7-2.9-20.7-2.9c-10,0-18.9,3.3-18.9,12.7v27.1h41l-2.9,34.7h-38.1v120.5h-48.2V340h-25.7V305.3z"/>
		<path class="st2" d="M285,305.8h25.7v-23.3c0-10.3,0.3-26.1,8.3-35.9c8.4-10.4,20-17.5,39.9-17.5c32.4,0,46.1,4.3,46.1,4.3
			l-6.4,35.5c0,0-10.7-2.9-20.7-2.9c-10,0-18.9,3.3-18.9,12.7v27.1h41l-2.9,34.7h-38.1V461h-48.2V340.5H285V305.8z"/>
		<path class="st2" d="M285.5,306.3h25.7V283c0-10.3,0.3-26.1,8.3-35.9c8.4-10.4,20-17.5,39.9-17.5c32.4,0,46.1,4.3,46.1,4.3
			l-6.4,35.5c0,0-10.7-2.9-20.7-2.9c-10,0-18.9,3.3-18.9,12.7v27.1h41l-2.9,34.7h-38.1v120.5h-48.2V341h-25.7V306.3z"/>
		<path class="st2" d="M286,306.8h25.7v-23.3c0-10.3,0.3-26.1,8.3-35.9c8.4-10.4,20-17.5,39.9-17.5c32.4,0,46.1,4.3,46.1,4.3
			l-6.4,35.5c0,0-10.7-2.9-20.7-2.9c-10,0-18.9,3.3-18.9,12.7v27.1h41l-2.9,34.7h-38.1v120.5h-48.2V341.5H286V306.8z"/>
		<path class="st2" d="M286.5,307.3h25.7V284c0-10.3,0.3-26.1,8.3-35.9c8.4-10.4,20-17.5,39.9-17.5c32.4,0,46.1,4.3,46.1,4.3
			l-6.4,35.5c0,0-10.7-2.9-20.7-2.9c-10,0-18.9,3.3-18.9,12.7v27.1h41l-2.9,34.7h-38.1v120.5h-48.2V342h-25.7V307.3z"/>
		<path class="st2" d="M287.1,307.9h25.7v-23.3c0-10.3,0.3-26.1,8.3-35.9c8.4-10.4,20-17.5,39.9-17.5c32.4,0,46.1,4.3,46.1,4.3
			l-6.4,35.5c0,0-10.7-2.9-20.7-2.9c-10,0-18.9,3.3-18.9,12.7v27.1h41l-2.9,34.7h-38.1v120.5h-48.2V342.5h-25.7V307.9z"/>
		<path class="st2" d="M287.6,308.4h25.7v-23.3c0-10.3,0.3-26.1,8.3-35.9c8.4-10.4,20-17.5,39.9-17.5c32.4,0,46.1,4.3,46.1,4.3
			l-6.4,35.5c0,0-10.7-2.9-20.7-2.9c-10,0-18.9,3.3-18.9,12.7v27.1h41l-2.9,34.7h-38.1v120.5h-48.2V343.1h-25.7V308.4z"/>
		<path class="st2" d="M288.1,308.9h25.7v-23.3c0-10.3,0.3-26.1,8.3-35.9c8.4-10.4,20-17.5,39.9-17.5c32.4,0,46.1,4.3,46.1,4.3
			l-6.4,35.5c0,0-10.7-2.9-20.7-2.9c-10,0-18.9,3.3-18.9,12.7v27.1h41l-2.9,34.7h-38.1v120.5h-48.2V343.6h-25.7V308.9z"/>
		<path class="st2" d="M288.6,309.4h25.7v-23.3c0-10.3,0.3-26.1,8.3-35.9c8.4-10.4,20-17.5,39.9-17.5c32.4,0,46.1,4.3,46.1,4.3
			l-6.4,35.5c0,0-10.7-2.9-20.7-2.9c-10,0-18.9,3.3-18.9,12.7v27.1h41l-2.9,34.7h-38.1v120.5h-48.2V344.1h-25.7V309.4z"/>
		<path class="st2" d="M289.1,309.9h25.7v-23.3c0-10.3,0.3-26.1,8.3-35.9c8.4-10.4,20-17.5,39.9-17.5c32.4,0,46.1,4.3,46.1,4.3
			l-6.4,35.5c0,0-10.7-2.9-20.7-2.9c-10,0-18.9,3.3-18.9,12.7v27.1h41l-2.9,34.7H363v120.5h-48.2V344.6h-25.7V309.9z"/>
		<path class="st2" d="M289.6,310.4h25.7v-23.3c0-10.3,0.3-26.1,8.3-35.9c8.4-10.4,20-17.5,39.9-17.5c32.4,0,46.1,4.3,46.1,4.3
			l-6.4,35.5c0,0-10.7-2.9-20.7-2.9c-10,0-18.9,3.3-18.9,12.7v27.1h41l-2.9,34.7h-38.1v120.5h-48.2V345.1h-25.7V310.4z"/>
		<path class="st2" d="M290.1,310.9h25.7v-23.3c0-10.3,0.3-26.1,8.3-35.9c8.4-10.4,20-17.5,39.9-17.5c32.4,0,46.1,4.3,46.1,4.3
			l-6.4,35.5c0,0-10.7-2.9-20.7-2.9c-10,0-18.9,3.3-18.9,12.7v27.1h41l-2.9,34.7H364v120.5h-48.2V345.6h-25.7V310.9z"/>
		<path class="st2" d="M290.6,311.4h25.7v-23.3c0-10.3,0.3-26.1,8.3-35.9c8.4-10.4,20-17.5,39.9-17.5c32.4,0,46.1,4.3,46.1,4.3
			l-6.4,35.5c0,0-10.7-2.9-20.7-2.9c-10,0-18.9,3.3-18.9,12.7v27.1h41l-2.9,34.7h-38.1v120.5h-48.2V346.1h-25.7V311.4z"/>
		<path class="st2" d="M291.1,311.9h25.7v-23.3c0-10.3,0.3-26.1,8.3-35.9c8.4-10.4,20-17.5,39.9-17.5c32.4,0,46.1,4.3,46.1,4.3
			l-6.4,35.5c0,0-10.7-2.9-20.7-2.9c-10,0-18.9,3.3-18.9,12.7v27.1h41l-2.9,34.7H365v120.5h-48.2V346.6h-25.7V311.9z"/>
		<path class="st2" d="M291.7,312.4h25.7v-23.3c0-10.3,0.3-26.1,8.3-35.9c8.4-10.4,20-17.5,39.9-17.5c32.4,0,46.1,4.3,46.1,4.3
			l-6.4,35.5c0,0-10.7-2.9-20.7-2.9c-10,0-18.9,3.3-18.9,12.7v27.1h41l-2.9,34.7h-38.1v120.5h-48.2V347.1h-25.7V312.4z"/>
		<path class="st2" d="M292.2,313h25.7v-23.3c0-10.3,0.3-26.1,8.3-35.9c8.4-10.4,20-17.5,39.9-17.5c32.4,0,46.1,4.3,46.1,4.3
			l-6.4,35.5c0,0-10.7-2.9-20.7-2.9c-10,0-18.9,3.3-18.9,12.7V313h41l-2.9,34.7H366v120.5h-48.2V347.7h-25.7V313z"/>
		<path class="st2" d="M292.7,313.5h25.7v-23.3c0-10.3,0.3-26.1,8.3-35.9c8.4-10.4,20-17.5,39.9-17.5c32.4,0,46.1,4.3,46.1,4.3
			l-6.4,35.5c0,0-10.7-2.9-20.7-2.9c-10,0-18.9,3.3-18.9,12.7v27.1h41l-2.9,34.7h-38.1v120.5h-48.2V348.2h-25.7V313.5z"/>
		<path class="st2" d="M293.2,314h25.7v-23.3c0-10.3,0.3-26.1,8.3-35.9c8.4-10.4,20-17.5,39.9-17.5c32.4,0,46.1,4.3,46.1,4.3
			l-6.4,35.5c0,0-10.7-2.9-20.7-2.9c-10,0-18.9,3.3-18.9,12.7V314h41l-2.9,34.7h-38.1v120.5h-48.2V348.7h-25.7V314z"/>
		<path class="st2" d="M293.7,314.5h25.7v-23.3c0-10.3,0.3-26.1,8.3-35.9c8.4-10.4,20-17.5,39.9-17.5c32.4,0,46.1,4.3,46.1,4.3
			l-6.4,35.5c0,0-10.7-2.9-20.7-2.9c-10,0-18.9,3.3-18.9,12.7v27.1h41l-2.9,34.7h-38.1v120.5h-48.2V349.2h-25.7V314.5z"/>
		<path class="st2" d="M294.2,315h25.7v-23.3c0-10.3,0.3-26.1,8.3-35.9c8.4-10.4,20-17.5,39.9-17.5c32.4,0,46.1,4.3,46.1,4.3
			l-6.4,35.5c0,0-10.7-2.9-20.7-2.9c-10,0-18.9,3.3-18.9,12.7V315h41l-2.9,34.7h-38.1v120.5h-48.2V349.7h-25.7V315z"/>
		<path class="st2" d="M294.7,315.5h25.7v-23.3c0-10.3,0.3-26.1,8.3-35.9c8.4-10.4,20-17.5,39.9-17.5c32.4,0,46.1,4.3,46.1,4.3
			l-6.4,35.5c0,0-10.7-2.9-20.7-2.9c-10,0-18.9,3.3-18.9,12.7v27.1h41l-2.9,34.7h-38.1v120.5h-48.2V350.2h-25.7V315.5z"/>
	</g>
</g>
<path class="st3" d="M89.8,110.6h25.7V87.3c0-10.3,0.3-26.1,8.3-35.9c8.4-10.4,20-17.5,39.9-17.5c32.4,0,46.1,4.3,46.1,4.3
	l-6.4,35.5c0,0-10.7-2.9-20.7-2.9c-10,0-18.9,3.3-18.9,12.7v27.1h41l-2.9,34.7h-38.1v120.5h-48.2V145.3H89.8V110.6z"/>
</svg>
